<?xml version="1.0" encoding="UTF-8"?>
<svg version="1.1" xmlns="http://www.w3.org/2000/svg" width="1829" height="1631">
<path d="M0 0 C3.35629777 0.010865 6.7120762 -0.00004111 10.06835938 -0.01269531 C12.22981887 -0.01137581 14.39127805 -0.00881778 16.55273438 -0.00488281 C17.54239197 -0.00893127 18.53204956 -0.01297974 19.55169678 -0.01715088 C32.99039158 0.07337557 32.99039158 0.07337557 37.63085938 4.01074219 C39.02517615 7.35710244 38.7632814 8.80874521 37.56835938 12.26074219 C30.23787042 24.00501146 14.83276505 31.88378086 3.56835938 39.26074219 C1.67174988 40.53041688 -0.22406665 41.80127677 -2.11914062 43.07324219 C-14.07579264 51.03912684 -26.14739454 58.80939682 -38.43164062 66.26074219 C-40.09646484 67.28554687 -40.09646484 67.28554687 -41.79492188 68.33105469 C-66.47782619 83.44359616 -92.47013407 95.62096305 -118.80664062 107.51074219 C-120.07468536 108.08408295 -120.07468536 108.08408295 -121.36834717 108.66900635 C-131.40528839 113.20121324 -141.48239651 117.58822196 -151.6887207 121.72583008 C-155.40303801 123.2362185 -159.0743014 124.83279053 -162.74414062 126.44824219 C-163.45828125 126.76237061 -164.17242188 127.07649902 -164.90820312 127.40014648 C-165.5140625 127.66738525 -166.11992188 127.93462402 -166.74414062 128.20996094 C-172.56150049 130.76401748 -178.40348816 133.26052732 -184.24414062 135.76074219 C-186.01023682 136.51677734 -186.01023682 136.51677734 -187.81201172 137.28808594 C-189.6829259 138.08886596 -191.55387884 138.88955517 -193.42489624 139.69009399 C-198.37841365 141.80955451 -203.33101241 143.93115252 -208.28320312 146.05371094 C-209.03107086 146.37425446 -209.7789386 146.69479797 -210.54946899 147.02505493 C-213.57908087 148.32362278 -216.60866234 149.62226156 -219.63824463 150.92089844 C-221.85582112 151.87145157 -224.07341211 152.82197085 -226.29101562 153.77246094 C-226.99954681 154.07614594 -227.708078 154.37983093 -228.43807983 154.69271851 C-232.54463885 156.45263803 -236.65186685 158.21098263 -240.75976562 159.96777344 C-255.36244549 166.21356771 -269.94890056 172.46033547 -284.30615234 179.25683594 C-286.65906544 180.36815901 -289.01611161 181.4704767 -291.37304688 182.57324219 C-300.91076494 187.05474576 -310.32586246 191.70048315 -319.62695312 196.6550293 C-324.44486737 199.22133274 -329.28839789 201.71637163 -334.18164062 204.13574219 C-350.2649016 212.11310492 -366.10047789 220.56190835 -381.83789062 229.19824219 C-385.66306903 231.2969649 -389.49663187 233.37909756 -393.33789062 235.44824219 C-406.28448179 242.42223176 -419.12721089 249.55764477 -431.90869141 256.82958984 C-434.76513304 258.449917 -437.6308164 260.05307327 -440.49853516 261.65332031 C-468.2780082 277.17095861 -495.6464548 293.52275579 -522.73483276 310.21548462 C-525.37236818 311.84024362 -528.01143059 313.46251716 -530.65039062 315.08496094 C-541.78262238 321.93131852 -552.90827975 328.78782411 -564.01513672 335.67529297 C-569.51425332 339.08243498 -575.03058931 342.46000532 -580.55664062 345.82324219 C-587.45162062 350.02253193 -594.28780465 354.30864891 -601.10473633 358.63330078 C-607.12483235 362.44822216 -613.1782804 366.20659176 -619.24414062 369.94824219 C-627.36744479 374.96275504 -635.42053368 380.06907822 -643.43164062 385.26074219 C-645.57716942 386.63621733 -647.72301437 388.01119942 -649.86914062 389.38574219 C-669.17164731 401.7937009 -688.31930868 414.39595508 -707.08007812 427.61230469 C-709.85150814 429.55506792 -712.64243227 431.46859401 -715.43164062 433.38574219 C-734.44642417 446.51161889 -752.97495996 460.36579793 -771.43164062 474.26074219 C-772.40101563 474.98519531 -773.37039063 475.70964844 -774.36914062 476.45605469 C-779.64513389 480.39931007 -784.89841129 484.369738 -790.11914062 488.38574219 C-790.66151367 488.80251221 -791.20388672 489.21928223 -791.76269531 489.64868164 C-794.2502156 491.56422348 -796.72456775 493.4937524 -799.18164062 495.44824219 C-799.98601562 496.08761719 -800.79039062 496.72699219 -801.61914062 497.38574219 C-802.31394531 497.94519531 -803.00875 498.50464844 -803.72460938 499.08105469 C-805.43164062 500.26074219 -805.43164062 500.26074219 -807.43164062 500.26074219 C-807.46902344 500.85242188 -807.50640625 501.44410156 -807.54492188 502.05371094 C-808.06045459 508.25021201 -809.07075679 511.9705186 -813.65039062 516.41308594 C-817.09432567 518.70098099 -818.63503906 518.46036458 -822.68164062 518.01074219 C-827.68488586 517.87067373 -830.16922188 518.13710752 -833.86914062 521.57324219 C-834.578125 522.30800781 -835.28710938 523.04277344 -836.01757812 523.79980469 C-838.80428838 526.64062582 -841.84325107 529.03445131 -844.99414062 531.44824219 C-852.90777964 537.59548256 -860.67305648 543.91963177 -868.43164062 550.26074219 C-869.44484375 551.08832031 -870.45804688 551.91589844 -871.50195312 552.76855469 C-873.29341074 554.23336476 -875.08382206 555.69945564 -876.87304688 557.16699219 C-878.58502249 558.56793712 -880.30121378 559.96374552 -882.02148438 561.35449219 C-888.0834507 566.26815653 -893.99863497 571.32867777 -899.87719727 576.45849609 C-903.57000552 579.67319029 -907.30499195 582.81460949 -911.11914062 585.88574219 C-916.1596349 589.96614231 -920.91493699 594.3057093 -925.66992188 598.70996094 C-930.21915327 602.91172628 -934.89531146 606.95516732 -939.61132812 610.96777344 C-945.94727077 616.36460111 -952.20532116 621.81733806 -958.31567383 627.46899414 C-960.96630937 629.92048752 -963.63755805 632.33733366 -966.36914062 634.69824219 C-969.96124874 637.81040266 -973.44673862 641.02989088 -976.93164062 644.26074219 C-984.58795742 651.3443467 -984.58795742 651.3443467 -988.05664062 654.44824219 C-988.64703125 654.97804688 -989.23742187 655.50785156 -989.84570312 656.05371094 C-991.43164062 657.26074219 -991.43164062 657.26074219 -994.43164062 658.26074219 C-994.43164062 658.92074219 -994.43164062 659.58074219 -994.43164062 660.26074219 C-995.75976562 661.60058594 -995.75976562 661.60058594 -997.68164062 663.19824219 C-1001.22743616 666.21434946 -1004.69142018 669.29819897 -1008.11914062 672.44824219 C-1008.62461426 672.91270752 -1009.13008789 673.37717285 -1009.65087891 673.85571289 C-1012.35129422 676.33930347 -1015.04656899 678.82842807 -1017.74023438 681.31933594 C-1033.22085561 695.63470018 -1033.22085561 695.63470018 -1041.11914062 702.44824219 C-1045.79505256 706.51466662 -1050.29276361 710.77346537 -1054.80151367 715.02319336 C-1057.94676089 717.97905292 -1061.12185805 720.88356617 -1064.38085938 723.71386719 C-1068.59808092 727.37923576 -1072.67822142 731.17902607 -1076.74414062 735.01074219 C-1077.44603516 735.66945313 -1078.14792969 736.32816406 -1078.87109375 737.00683594 C-1081.65826482 739.62650788 -1081.65826482 739.62650788 -1084.43164062 742.26074219 C-1085.29644043 742.94946411 -1085.29644043 742.94946411 -1086.17871094 743.65209961 C-1087.66331454 745.22534563 -1087.66331454 745.22534563 -1087.46850586 747.57543945 C-1087.31067627 748.48350342 -1087.15284668 749.39156738 -1086.99023438 750.32714844 C-1086.82072266 751.35622314 -1086.65121094 752.38529785 -1086.4765625 753.44555664 C-1086.27611328 754.56019287 -1086.07566406 755.6748291 -1085.86914062 756.82324219 C-1085.47165124 759.20339144 -1085.07452559 761.58360145 -1084.67773438 763.96386719 C-1084.46874512 765.18138672 -1084.25975586 766.39890625 -1084.04443359 767.65332031 C-1082.55650683 776.41252585 -1081.25148385 785.2021176 -1079.92724609 793.98730469 C-1079.6050236 796.11556048 -1079.27874749 798.24320786 -1078.94775391 800.37011719 C-1072.92158402 839.32915258 -1070.3435237 878.86606171 -1067.10543823 918.13438416 C-1066.67875055 923.30709609 -1066.24184821 928.47873488 -1065.79296875 933.64956665 C-1060.16748252 998.63314099 -1060.37872992 1063.94451559 -1060.3091507 1129.12679672 C-1060.30670383 1131.08515335 -1060.3026349 1133.04350774 -1060.29852295 1135.00186157 C-1060.27717391 1148.21788683 -1060.38640543 1161.4280797 -1060.75857925 1174.63901138 C-1060.8121309 1176.56024221 -1060.85943887 1178.481644 -1060.90646362 1180.40304565 C-1061.742983 1206.7316365 -1061.742983 1206.7316365 -1069.55664062 1217.07324219 C-1077.98123403 1223.48325891 -1089.87333342 1223.32867188 -1100.06054688 1223.64746094 C-1100.85331528 1223.67298538 -1101.64608368 1223.69850983 -1102.46287537 1223.72480774 C-1104.13086607 1223.77643054 -1105.79892475 1223.82589859 -1107.46704102 1223.87329102 C-1109.96422777 1223.947355 -1112.46042845 1224.03845653 -1114.95703125 1224.12988281 C-1143.94610311 1225.05254289 -1143.94610311 1225.05254289 -1154.43164062 1217.26074219 C-1155.35783203 1216.58398438 -1155.35783203 1216.58398438 -1156.30273438 1215.89355469 C-1157.99414062 1214.57324219 -1157.99414062 1214.57324219 -1160.43164062 1212.26074219 C-1160.43164062 1211.60074219 -1160.43164062 1210.94074219 -1160.43164062 1210.26074219 C-1161.42164063 1209.93074219 -1162.41164063 1209.60074219 -1163.43164062 1209.26074219 C-1165.27851264 1207.17271809 -1166.99126147 1205.09448505 -1168.68164062 1202.88574219 C-1169.41688965 1201.93235962 -1169.41688965 1201.93235962 -1170.16699219 1200.9597168 C-1186.50576587 1179.53591662 -1194.28524707 1155.18358942 -1200.43164062 1129.26074219 C-1200.6573877 1128.31827637 -1200.88313477 1127.37581055 -1201.11572266 1126.40478516 C-1204.30860089 1112.76163289 -1206.20102039 1099.05104531 -1207.68164062 1085.13574219 C-1207.76472473 1084.36728973 -1207.84780884 1083.59883728 -1207.93341064 1082.80709839 C-1210.28902301 1060.66380932 -1210.62032972 1038.49781987 -1210.61694336 1016.24487305 C-1210.61686187 1013.54526099 -1210.62386501 1010.84581781 -1210.63745117 1008.14624023 C-1210.71859716 991.7399494 -1210.41325598 975.55900547 -1208.43164062 959.26074219 C-1208.29089111 958.09728271 -1208.1501416 956.93382324 -1208.00512695 955.73510742 C-1207.63506644 952.98202986 -1207.21306224 950.24855657 -1206.74414062 947.51074219 C-1206.49531128 946.04858276 -1206.49531128 946.04858276 -1206.24145508 944.55688477 C-1203.02377933 926.64121914 -1197.82061805 909.32059235 -1191.23730469 892.37548828 C-1190.2414863 889.7616159 -1189.32673155 887.12471724 -1188.41967773 884.47900391 C-1180.04536093 860.07938623 -1170.06748639 836.18252971 -1160.43164062 812.26074219 C-1160.91342773 812.62498291 -1161.39521484 812.98922363 -1161.89160156 813.36450195 C-1195.20407056 838.46134154 -1195.20407056 838.46134154 -1204.43164062 838.26074219 C-1206.43164062 836.26074219 -1206.43164062 836.26074219 -1206.99414062 833.32324219 C-1206.48430368 820.28214976 -1188.87895791 805.82706806 -1180.57617188 796.68652344 C-1177.49994924 793.20686177 -1174.60232039 789.5897769 -1171.68164062 785.97949219 C-1169.49662493 783.33926489 -1167.23992672 780.79344498 -1164.93164062 778.26074219 C-1161.06311873 774.01072246 -1157.41122873 769.62390048 -1153.79882812 765.15527344 C-1151.74710057 762.64647787 -1149.65597007 760.17836753 -1147.54296875 757.72119141 C-1142.0993614 751.38138041 -1136.96588551 744.84392963 -1131.93457031 738.17236328 C-1131.42055664 737.49125488 -1130.90654297 736.81014648 -1130.37695312 736.10839844 C-1129.87639404 735.44106689 -1129.37583496 734.77373535 -1128.86010742 734.08618164 C-1127.43164063 732.26074219 -1127.43164063 732.26074219 -1124.95898438 729.62011719 C-1120.78263308 724.6682295 -1118.50675172 718.31153435 -1115.86914062 712.44824219 C-1115.30031958 711.20241542 -1114.73066373 709.95696946 -1114.16015625 708.71191406 C-1113.05948501 706.30898183 -1111.97750224 703.90026091 -1110.90380859 701.48486328 C-1110.02526546 699.5608101 -1109.10534182 697.6536272 -1108.10400391 695.79052734 C-1104.74724902 689.39554175 -1105.33408744 684.2723517 -1106.43164062 677.26074219 C-1106.53367798 676.58434692 -1106.63571533 675.90795166 -1106.74084473 675.21105957 C-1107.47883975 670.33671494 -1108.27897542 665.47396973 -1109.09790039 660.61264038 C-1109.9008301 655.83977023 -1110.68568403 651.06392953 -1111.47070312 646.28808594 C-1111.63391052 645.29627823 -1111.79711792 644.30447052 -1111.965271 643.28260803 C-1113.70234103 632.68353392 -1115.32739855 622.06811782 -1116.93164062 611.44824219 C-1117.07447479 610.50290619 -1117.21730896 609.55757019 -1117.36447144 608.58358765 C-1117.94553473 604.73558024 -1118.52612436 600.88750218 -1119.1056366 597.03926086 C-1120.15508109 590.07491853 -1121.21808804 583.11272939 -1122.28710938 576.15136719 C-1127.183178 544.24821269 -1131.75803824 512.33021831 -1135.43164062 480.26074219 C-1135.64651123 478.39579102 -1135.64651123 478.39579102 -1135.86572266 476.49316406 C-1139.26944171 446.41827225 -1140.6042387 416.39285882 -1140.68164062 386.13574219 C-1140.68690765 385.08986938 -1140.69217468 384.04399658 -1140.69760132 382.96643066 C-1140.77273161 363.74745869 -1139.69777101 345.30142436 -1134.93164062 326.63574219 C-1134.62355469 325.35957031 -1134.31546875 324.08339844 -1133.99804688 322.76855469 C-1131.71042643 313.53952799 -1131.71042643 313.53952799 -1129.43164062 311.26074219 C-1124.87608507 311.81629774 -1124.87608507 311.81629774 -1123.43164062 313.26074219 C-1123.57978086 320.17331194 -1125.495057 326.6990272 -1127.43945312 333.27636719 C-1132.61905627 351.78397354 -1132.95877794 370.16272911 -1132.86914062 389.26074219 C-1132.86613117 390.62700341 -1132.86339768 391.99326527 -1132.8609314 393.35952759 C-1132.79394382 420.11599502 -1131.20509278 446.64596131 -1128.43164062 473.26074219 C-1128.33026794 474.23354126 -1128.22889526 475.20634033 -1128.12445068 476.20861816 C-1126.79828272 488.81128018 -1125.31766519 501.39237676 -1123.72265625 513.96368408 C-1123.44590444 516.14815438 -1123.17258554 518.33302425 -1122.90039062 520.51806641 C-1120.87322003 536.73628808 -1118.44684445 552.87226583 -1115.77539062 568.99511719 C-1112.2398891 590.49665418 -1109.09431143 612.06372861 -1105.85620117 633.61157227 C-1103.76790885 647.50334248 -1101.64867017 661.38888971 -1099.43164062 675.26074219 C-1097.23417217 673.06327374 -1096.39143574 671.26974603 -1095.11132812 668.44824219 C-1094.66241211 667.4639624 -1094.21349609 666.47968262 -1093.75097656 665.46557617 C-1093.2743457 664.40798096 -1092.79771484 663.35038574 -1092.30664062 662.26074219 C-1091.81454102 661.17801025 -1091.32244141 660.09527832 -1090.81542969 658.97973633 C-1087.57403606 651.83422432 -1084.37975696 644.66820741 -1081.20605469 637.49243164 C-1076.07044639 625.90051742 -1070.59037762 614.47072619 -1065.12792969 603.03027344 C-1062.97960748 598.52746863 -1060.84226832 594.02072666 -1058.75341797 589.48999023 C-1056.16163044 583.90073826 -1053.50795958 578.35549762 -1050.73974609 572.85180664 C-1050.02919641 571.43490549 -1049.31872938 570.01796289 -1048.6083374 568.60098267 C-1048.24710533 567.88104252 -1047.88587326 567.16110237 -1047.51369476 566.41934586 C-1045.7967319 562.99415463 -1044.08710684 559.56531255 -1042.37744141 556.13647461 C-1041.68265882 554.74357053 -1040.98784425 553.35068241 -1040.29299927 551.95780945 C-1039.94036137 551.25091162 -1039.58772346 550.54401379 -1039.22439957 549.81569481 C-1036.88776374 545.13264821 -1034.54949702 540.45041565 -1032.21125984 535.76816845 C-1030.18225349 531.70494496 -1028.15400271 527.6413479 -1026.12744141 523.5769043 C-1010.34699602 491.93021964 -1010.34699602 491.93021964 -1002.49438477 477.16601562 C-999.44897531 471.42974451 -996.57586232 465.60918063 -993.69049072 459.7913208 C-991.28100265 454.94769487 -988.85133538 450.11415288 -986.42574692 445.2785759 C-984.48590117 441.4101733 -982.54853821 437.54052674 -980.61088371 433.67102623 C-978.95479053 430.36405109 -977.29796055 427.05744959 -975.6394043 423.75170898 C-967.40264012 407.33303829 -959.27556862 390.8719242 -951.43164062 374.26074219 C-951.04376877 373.44030426 -950.65589691 372.61986633 -950.25627136 371.77456665 C-948.59398357 368.25706594 -946.93520064 364.73804506 -945.28710938 361.21386719 C-944.0116772 358.4884344 -942.72068401 355.77104849 -941.41992188 353.05761719 C-941.09604492 352.37699219 -940.77216797 351.69636719 -940.43847656 350.99511719 C-939.55536096 349.13938719 -938.66750425 347.2859155 -937.77929688 345.43261719 C-935.7749502 340.71514037 -934.9295817 338.16597295 -936.73242188 333.31152344 C-937.39112435 331.72710904 -938.06265623 330.147992 -938.74414062 328.57324219 C-939.48813887 326.78362931 -940.23022983 324.99322267 -940.97070312 323.20214844 C-941.3693457 322.2458252 -941.76798828 321.28950195 -942.17871094 320.30419922 C-948.26472507 305.52082973 -953.96953921 290.61710632 -958.43164062 275.26074219 C-958.66882813 274.51614746 -958.90601563 273.77155273 -959.15039062 273.00439453 C-964.402706 256.31377675 -966.19468373 238.69205408 -966.43164062 221.26074219 C-966.45210449 219.95621094 -966.47256836 218.65167969 -966.49365234 217.30761719 C-966.54750173 213.58703262 -966.58199359 209.86659032 -966.6048584 206.14569092 C-966.61421645 204.66491858 -966.62608679 203.18415951 -966.64074707 201.70343018 C-966.85831387 176.45055223 -966.85831387 176.45055223 -961.61914062 166.63574219 C-961.13832031 165.69472656 -960.6575 164.75371094 -960.16210938 163.78417969 C-956.79341385 158.87181556 -953.19417634 156.79242837 -947.49853516 155.58740234 C-936.46346652 153.84337661 -924.72354043 155.31530751 -913.66506958 156.27285767 C-911.6726883 156.44365188 -909.67899138 156.59887377 -907.68530273 156.75366211 C-896.29437145 157.83033024 -885.23104376 160.60908728 -876.43164062 168.26074219 C-870.64640242 176.1672344 -871.98732037 185.77311331 -873.24414062 195.01074219 C-873.62901016 197.42917913 -874.02482068 199.84590071 -874.43164062 202.26074219 C-874.59148437 203.33066406 -874.75132812 204.40058594 -874.91601562 205.50292969 C-878.20801313 224.76556375 -885.54533859 243.3926724 -892.55664062 261.57324219 C-892.9188118 262.51695679 -892.9188118 262.51695679 -893.28829956 263.47973633 C-896.47182997 271.73944355 -899.98540951 279.77319026 -903.80786133 287.7512207 C-905.78881689 292.03271764 -907.51429366 296.3791508 -909.23181152 300.77281189 C-910.79859883 304.75173714 -912.48905716 308.64041622 -914.30664062 312.51074219 C-915.00273438 314.12335938 -915.00273438 314.12335938 -915.71289062 315.76855469 C-917.06712827 318.52011936 -918.37499219 320.61875457 -920.15039062 323.06542969 C-923.34323004 327.91316365 -925.31125094 332.38704245 -925.43164062 338.26074219 C-923.14487628 348.57094768 -917.45104668 358.02989803 -912.55175781 367.29003906 C-908.7950182 374.42100944 -905.23246128 381.64658341 -901.65820312 388.87011719 C-900.29247037 391.62702694 -898.92597371 394.38355726 -897.55908203 397.13989258 C-897.21920698 397.82535188 -896.87933193 398.51081118 -896.52915764 399.21704197 C-892.85822993 406.61430807 -889.1486233 413.99200284 -885.43164062 421.36621094 C-885.12420551 421.97620186 -884.8167704 422.58619278 -884.50001907 423.21466827 C-882.81170986 426.56394058 -881.1222451 429.91262791 -879.43164062 433.26074219 C-877.38775904 433.47080475 -877.38775904 433.47080475 -876.02148438 432.11621094 C-872.56642914 428.62848379 -869.38177429 425.02658539 -866.30664062 421.19824219 C-861.61663526 415.3678588 -856.55647658 409.93859433 -851.43945312 404.48339844 C-848.59565723 401.44949049 -845.83765142 398.35217828 -843.12304688 395.20214844 C-840.25208348 391.90683942 -837.2947376 388.68895694 -834.34960938 385.45996094 C-831.27553629 382.16760847 -831.27553629 382.16760847 -830.53320312 377.94042969 C-830.7059375 377.01488281 -830.87867188 376.08933594 -831.05664062 375.13574219 C-831.25257813 374.08386719 -831.44851563 373.03199219 -831.65039062 371.94824219 C-832.7192943 366.90301684 -833.88477971 361.88307814 -835.10986328 356.87353516 C-836.43164062 351.4528751 -836.43164062 351.4528751 -836.43164062 349.26074219 C-838.25695312 349.57011719 -838.25695312 349.57011719 -840.11914062 349.88574219 C-843.78538247 350.33347792 -846.19510263 350.25978036 -849.43164062 348.26074219 C-852.76528805 343.5936358 -852.55877609 337.31762318 -852.56445312 331.79589844 C-852.56574219 330.58353516 -852.56703125 329.37117188 -852.56835938 328.12207031 C-852.56449219 326.86845703 -852.560625 325.61484375 -852.55664062 324.32324219 C-852.56050781 323.07349609 -852.564375 321.82375 -852.56835938 320.53613281 C-852.5511997 304.38030127 -852.5511997 304.38030127 -849.43164062 301.26074219 C-846.55664062 300.82324219 -846.55664062 300.82324219 -843.43164062 301.26074219 C-839.86304027 304.91153679 -838.39433715 308.56350367 -836.86914062 313.38574219 C-836.6600708 314.03937744 -836.45100098 314.6930127 -836.2355957 315.36645508 C-834.47014791 320.95192547 -832.88287864 326.58557563 -831.43164062 332.26074219 C-818.82779015 320.88110677 -812.63519606 298.55061834 -807.07617188 282.97949219 C-806.64045616 281.76020271 -806.64045616 281.76020271 -806.19593811 280.51628113 C-804.73212569 276.40784406 -803.28553348 272.29419946 -801.8605957 268.17211914 C-801.3244829 266.64563496 -800.78827304 265.11918486 -800.25195312 263.59277344 C-800.01164871 262.8822583 -799.7713443 262.17174316 -799.52375793 261.43969727 C-798.2451235 257.82731356 -797.71720672 256.45111959 -794.43164062 254.26074219 C-791.24414063 254.63574219 -791.24414063 254.63574219 -788.43164062 255.26074219 C-787.64602091 258.04461896 -787.30400618 260.52573216 -787.28979492 263.41503906 C-787.28276047 264.222677 -787.27572601 265.03031494 -787.26847839 265.86242676 C-787.26431412 266.72605835 -787.26014984 267.58968994 -787.25585938 268.47949219 C-787.23267147 270.31674336 -787.20855456 272.153983 -787.18359375 273.99121094 C-787.1484192 276.88142752 -787.11909214 279.77121601 -787.10571289 282.66162109 C-787.09025684 285.45559993 -787.05007805 288.24834003 -787.00585938 291.04199219 C-787.008722 292.33743958 -787.008722 292.33743958 -787.01164246 293.65905762 C-786.92662656 298.54721096 -786.92662656 298.54721096 -784.6105957 302.75878906 C-781.37710061 304.98763633 -778.25098228 305.73497838 -774.43164062 306.26074219 C-773.41070313 306.40382813 -772.38976562 306.54691406 -771.33789062 306.69433594 C-766.53731387 307.05886571 -762.93817768 307.3019574 -758.87695312 304.49511719 C-756.59673782 302.17545179 -754.51376589 299.75848549 -752.43164062 297.26074219 C-749.87374017 294.79904595 -747.1519672 292.54063494 -744.43164062 290.26074219 C-743.8918457 289.80183594 -743.35205078 289.34292969 -742.79589844 288.87011719 C-729.98969022 278.01670155 -716.4899073 268.98662864 -701.86914062 260.76074219 C-701.14355957 260.35122314 -700.41797852 259.9417041 -699.67041016 259.51977539 C-686.5154181 252.28104158 -686.5154181 252.28104158 -678.43164062 254.26074219 C-677.43164062 255.26074219 -677.43164062 255.26074219 -677.05664062 258.69824219 C-677.4531902 274.70185013 -696.14019527 289.57559264 -706.86425781 299.80712891 C-710.20165939 302.90228295 -713.7174533 305.6389629 -717.43164062 308.26074219 C-718.12128906 308.80214844 -718.8109375 309.34355469 -719.52148438 309.90136719 C-727.2693726 315.67375407 -735.43325097 317.57043704 -744.95898438 317.01464844 C-756.18560177 315.85223679 -756.18560177 315.85223679 -766.33398438 319.63964844 C-769.46500325 322.53366167 -771.93848843 325.81231003 -774.43164062 329.26074219 C-775.54182144 330.54454159 -776.66494974 331.81738221 -777.80664062 333.07324219 C-778.33 333.688125 -778.85335938 334.30300781 -779.39257812 334.93652344 C-782.32877303 338.28333563 -785.38465791 341.5149229 -788.43164062 344.76074219 C-792.56298566 349.16597375 -796.65037411 353.58661583 -800.58789062 358.16699219 C-803.68271313 361.68145164 -806.88580851 365.09728349 -810.08251953 368.51904297 C-811.06473846 369.57504968 -812.03711243 370.64030599 -812.99902344 371.71484375 C-814.43164063 373.26074219 -814.43164063 373.26074219 -815.98144531 374.64257812 C-817.70315972 376.19033588 -817.70315972 376.19033588 -819.43164062 379.26074219 C-819.35277593 382.75936288 -818.40716268 385.91635924 -817.43164062 389.26074219 C-817.02989731 390.94002275 -816.635302 392.62103023 -816.24804688 394.30371094 C-815.83052612 396.01866382 -815.41254554 397.73350481 -814.99414062 399.44824219 C-814.33367407 402.21808138 -813.6776204 404.98892439 -813.0234375 407.76025391 C-812.52476092 409.86728589 -812.01816954 411.97244238 -811.50976562 414.07714844 C-805.84682147 439.4737194 -806.8810305 466.38063507 -806.43164062 492.26074219 C-800.70837733 488.12232382 -794.99747329 483.98404896 -789.43164062 479.63574219 C-783.25660814 474.84507996 -776.96990716 470.21240135 -770.66992188 465.58789062 C-765.40036928 461.71779988 -760.15554904 457.81719554 -754.93164062 453.88574219 C-745.7516422 446.9855893 -736.47588336 440.26033932 -727.01757812 433.74511719 C-722.96714453 430.94779359 -718.94981836 428.10411372 -714.93164062 425.26074219 C-698.05609598 413.33160718 -680.93731861 401.83250999 -663.56689453 390.63867188 C-661.49228649 389.29987839 -659.42042087 387.95696159 -657.34960938 386.61230469 C-638.23481851 374.20289375 -618.95982285 362.07625765 -599.53125 350.1640625 C-594.88668408 347.31205904 -590.25206064 344.44411353 -585.61914062 341.57324219 C-584.77577148 341.05068848 -583.93240234 340.52813477 -583.06347656 339.98974609 C-581.3749539 338.94343376 -579.68647714 337.89704736 -577.99804688 336.85058594 C-575.34128761 335.20477008 -572.68347947 333.56065975 -570.02539062 331.91699219 C-568.2232947 330.80242921 -566.4212113 329.68784599 -564.61914062 328.57324219 C-563.73669678 328.02756592 -562.85425293 327.48188965 -561.94506836 326.91967773 C-558.10132033 324.54083078 -554.26031698 322.15828927 -550.43554688 319.74902344 C-541.41243803 314.06577324 -532.29395918 308.55353271 -523.14160156 303.08081055 C-515.88291953 298.7388168 -508.64978545 294.35724806 -501.43164062 289.94824219 C-492.92014473 284.75561323 -484.37026804 279.63887146 -475.75634766 274.61816406 C-473.14379537 273.0926662 -470.53575349 271.55960154 -467.92773438 270.02636719 C-456.40923768 263.2666057 -444.8314489 256.628381 -433.15625 250.14257812 C-427.11337361 246.7825131 -421.12431458 243.34639081 -415.17456055 239.82373047 C-412.49176398 238.29500206 -409.77506435 236.9136607 -406.99414062 235.57324219 C-401.47265864 232.86957078 -396.18254821 229.84536808 -390.86914062 226.76074219 C-381.43444728 221.29555504 -371.81466575 216.24974863 -362.11352539 211.27587891 C-355.93460093 208.10087458 -349.82350675 204.85771953 -343.80664062 201.38574219 C-338.00612554 198.04651038 -332.08214895 195.14083852 -326 192.35131836 C-319.75631088 189.4692326 -313.68651769 186.30113643 -307.64135742 183.0246582 C-294.17890314 175.7950722 -280.04585624 169.77986146 -266.11914062 163.51074219 C-265.24147034 163.11545319 -264.36380005 162.72016418 -263.45953369 162.31289673 C-250.94559091 156.68194883 -238.38611541 151.19716493 -225.72460938 145.90527344 C-218.49439829 142.88084877 -211.30686842 139.75930992 -204.11914062 136.63574219 C-201.5879605 135.53662289 -199.05666933 134.43775942 -196.52539062 133.33886719 C-195.32140625 132.81615234 -194.11742187 132.2934375 -192.87695312 131.75488281 C-181.8081553 126.95463886 -170.73258391 122.18156569 -159.55664062 117.63574219 C-153.88282772 115.32215492 -148.3103601 112.85903719 -142.77539062 110.22583008 C-137.56525165 107.75888799 -132.30172323 105.42409223 -127.02587891 103.10131836 C-86.72115918 85.34852168 -48.84452288 65.00428506 -12.43164062 40.26074219 C-11.61904785 39.71111816 -10.80645508 39.16149414 -9.96923828 38.59521484 C11.24275317 26.53351773 11.24275317 26.53351773 27.56835938 10.26074219 C19.88609709 10.20951626 12.20387977 10.17479074 4.52148438 10.15087891 C1.9146968 10.14089738 -0.69207981 10.12730743 -3.29882812 10.10986328 C-28.60005199 9.71007148 -28.60005199 9.71007148 -53.30664062 14.57324219 C-54.00861572 14.78762939 -54.71059082 15.0020166 -55.43383789 15.22290039 C-61.79655555 17.23677127 -68.63586511 19.46496667 -73.43164062 24.26074219 C-73.82928325 26.24895532 -74.16939411 28.25018558 -74.43164062 30.26074219 C-73.82167236 30.30561768 -73.2117041 30.35049316 -72.58325195 30.39672852 C-69.80234513 30.60889651 -67.0234293 30.84087243 -64.24414062 31.07324219 C-63.28443359 31.14349609 -62.32472656 31.21375 -61.3359375 31.28613281 C-52.35215071 32.063277 -52.35215071 32.063277 -48.43164062 35.26074219 C-45.66178731 39.61336883 -45.82921863 45.25532417 -46.43164062 50.26074219 C-47.09164063 50.92074219 -47.75164062 51.58074219 -48.43164062 52.26074219 C-50.08164063 52.26074219 -51.73164062 52.26074219 -53.43164062 52.26074219 C-54.91664063 46.81574219 -54.91664063 46.81574219 -56.43164062 41.26074219 C-57.42164063 41.22335938 -58.41164063 41.18597656 -59.43164062 41.14746094 C-75.74335115 40.39578824 -75.74335115 40.39578824 -81.93164062 35.13574219 C-84.0369917 31.10048596 -84.08414969 27.72227295 -83.43164062 23.26074219 C-80.57402992 16.03266806 -73.82161174 12.21920204 -67.05664062 9.13574219 C-45.63893243 0.50539986 -22.80903785 -0.08798739 0 0 Z M-952.43164062 167.26074219 C-953.82733588 169.27610253 -953.82733588 169.27610253 -954.68164062 171.57324219 C-954.99617187 172.311875 -955.31070313 173.05050781 -955.63476562 173.81152344 C-957.76996575 180.37412382 -957.59252277 186.98177508 -957.59960938 193.80761719 C-957.60293777 194.93282776 -957.60626617 196.05803833 -957.60969543 197.21734619 C-957.61475233 199.60111077 -957.61710414 201.98488241 -957.61694336 204.36865234 C-957.6191079 207.95650491 -957.63721594 211.54403862 -957.65625 215.13183594 C-957.69658994 231.28331683 -957.13575764 247.1234656 -953.61914062 262.94824219 C-953.44737305 263.73602051 -953.27560547 264.52379883 -953.09863281 265.33544922 C-951.4035502 272.82989768 -949.10676446 280.05979059 -946.43164062 287.26074219 C-946.14272949 288.04143066 -945.85381836 288.82211914 -945.55615234 289.62646484 C-940.73259081 302.59025581 -935.61119501 315.43583491 -930.43164062 328.26074219 C-927.62863184 325.82910036 -926.43226943 323.38855443 -925.01367188 319.98339844 C-924.56781738 318.92193604 -924.12196289 317.86047363 -923.66259766 316.7668457 C-923.19450684 315.63045654 -922.72641602 314.49406738 -922.24414062 313.32324219 C-921.75800293 312.15913818 -921.27186523 310.99503418 -920.77099609 309.7956543 C-917.48683786 301.90297589 -914.26723912 293.98388687 -911.1574707 286.02075195 C-909.56891606 281.97816651 -907.87392084 278.01946025 -906.04101562 274.08105469 C-903.03986815 267.53800733 -900.52157981 260.833048 -898.05664062 254.07324219 C-897.81863739 253.42211456 -897.58063416 252.77098694 -897.3354187 252.10012817 C-889.36199277 230.2046147 -881.50082074 207.26296554 -880.80664062 183.76074219 C-880.77127197 183.07246338 -880.73590332 182.38418457 -880.69946289 181.67504883 C-880.71048084 177.8575692 -881.32113884 176.38205014 -883.90820312 173.54199219 C-891.12105497 168.42827609 -898.6260352 166.49372619 -907.30664062 165.51074219 C-908.83768433 165.32970947 -908.83768433 165.32970947 -910.3996582 165.14501953 C-918.63366071 164.26531575 -926.84114675 163.94625548 -935.11914062 163.88574219 C-936.84656494 163.86495605 -936.84656494 163.86495605 -938.60888672 163.84375 C-940.22851318 163.85293457 -940.22851318 163.85293457 -941.88085938 163.86230469 C-942.83307373 163.86568848 -943.78528809 163.86907227 -944.76635742 163.87255859 C-947.94383203 164.33534 -949.83607318 165.39972118 -952.43164062 167.26074219 Z M-698.55664062 266.51074219 C-699.54277344 267.05142334 -700.52890625 267.59210449 -701.54492188 268.14916992 C-710.65744259 273.23665016 -719.11875744 278.96649113 -727.43164062 285.26074219 C-728.05506348 285.72867187 -728.67848633 286.19660156 -729.32080078 286.67871094 C-737.77197663 293.05224097 -745.91366294 299.79784126 -753.43164062 307.26074219 C-753.43164062 307.59074219 -753.43164062 307.92074219 -753.43164062 308.26074219 C-735.54444912 308.90468108 -725.44584152 304.86974072 -712.30664062 292.76074219 C-711.28846748 291.8076445 -710.2715123 290.8532438 -709.25585938 289.89746094 C-706.92353598 287.71998059 -704.55495412 285.63214064 -702.11914062 283.57324219 C-695.47229756 277.77961707 -689.78487965 270.94668068 -685.43164062 263.26074219 C-685.43164062 262.60074219 -685.43164062 261.94074219 -685.43164062 261.26074219 C-690.3999095 261.26074219 -694.27089089 264.15768965 -698.55664062 266.51074219 Z M-797.43164062 281.26074219 C-797.69267578 281.9593335 -797.95371094 282.6579248 -798.22265625 283.37768555 C-815.82927859 330.31197631 -815.82927859 330.31197631 -826.75976562 341.68261719 C-828.759088 344.7656844 -828.57722848 346.54822338 -827.91552734 350.10205078 C-827.75584473 350.81441895 -827.59616211 351.52678711 -827.43164062 352.26074219 C-827.21338623 353.34282959 -827.21338623 353.34282959 -826.99072266 354.44677734 C-826.52721989 356.66521441 -826.01765479 358.86825503 -825.49414062 361.07324219 C-825.23987305 362.19762695 -825.23987305 362.19762695 -824.98046875 363.34472656 C-824.16873126 366.79846897 -823.41865807 369.28021602 -821.43164062 372.26074219 C-821.03074219 371.79925781 -820.62984375 371.33777344 -820.21679688 370.86230469 C-812.90405658 362.47172285 -805.44062198 354.22416904 -797.85668945 346.07836914 C-795.2067898 343.2225819 -792.61217703 340.32984751 -790.06054688 337.38574219 C-785.67559027 332.34906538 -781.05277179 327.543246 -776.421875 322.73339844 C-775.77669922 322.0540625 -775.13152344 321.37472656 -774.46679688 320.67480469 C-773.59099976 319.76142334 -773.59099976 319.76142334 -772.69750977 318.82958984 C-771.22232274 317.33730261 -771.22232274 317.33730261 -771.43164062 315.26074219 C-772.20507812 315.174375 -772.97851562 315.08800781 -773.77539062 314.99902344 C-781.79678974 313.91692876 -787.66488642 312.14900459 -793.36914062 306.26074219 C-795.99868569 301.31101031 -795.73030223 295.42829536 -795.99414062 289.94824219 C-796.03732422 289.11228516 -796.08050781 288.27632813 -796.125 287.41503906 C-796.23049369 285.36377283 -796.33151378 283.31227739 -796.43164062 281.26074219 C-796.76164062 281.26074219 -797.09164063 281.26074219 -797.43164062 281.26074219 Z M-843.43164062 325.26074219 C-843.43164062 330.54074219 -843.43164062 335.82074219 -843.43164062 341.26074219 C-842.11164063 341.26074219 -840.79164063 341.26074219 -839.43164062 341.26074219 C-839.91150093 335.69183702 -840.73079244 330.59006651 -842.43164062 325.26074219 C-842.76164062 325.26074219 -843.09164063 325.26074219 -843.43164062 325.26074219 Z M-931.43164062 348.26074219 C-931.69267578 348.84339844 -931.95371094 349.42605469 -932.22265625 350.02636719 C-933.45550011 352.77273739 -934.69357381 355.51672274 -935.93164062 358.26074219 C-936.3415625 359.17597656 -936.75148438 360.09121094 -937.17382812 361.03417969 C-939.66622872 366.54767191 -942.26996845 371.99501764 -944.98876953 377.40014648 C-945.7036885 378.82574757 -946.41850724 380.25139893 -947.13323975 381.67709351 C-947.50838463 382.42485928 -947.88352951 383.17262505 -948.27004242 383.94305038 C-950.25858615 387.91071449 -952.23905706 391.88240398 -954.22021484 395.85375977 C-958.4054632 404.24063092 -962.59277982 412.62646761 -966.78123283 421.01173878 C-969.29451069 426.04350927 -971.80703434 431.07565348 -974.31787109 436.10864258 C-976.77623073 441.0363565 -979.23663697 445.96304387 -981.69836807 450.88907433 C-982.62304569 452.74024821 -983.5470311 454.59176806 -984.47024155 456.44367409 C-989.92735306 467.38905687 -995.49257 478.26620783 -1001.22549438 489.06987 C-1004.2608852 494.80450895 -1007.1473028 500.61272393 -1010.02453613 506.427948 C-1014.4695706 515.40908899 -1018.95638198 524.36034733 -1023.68164062 533.19824219 C-1027.56048862 540.47905 -1031.17016263 547.86405862 -1034.69873047 555.3203125 C-1037.72330482 561.70540982 -1040.79120991 568.06689026 -1043.89648438 574.41308594 C-1044.49175934 575.6296714 -1044.49175934 575.6296714 -1045.09906006 576.87083435 C-1045.91915506 578.54667843 -1046.7392643 580.22251553 -1047.55938721 581.89834595 C-1058.06736461 603.38095059 -1068.1718569 625.02292085 -1078.04492188 646.80517578 C-1080.33808394 651.86389885 -1082.64687583 656.91439014 -1084.99414062 661.94824219 C-1085.80044922 663.68654297 -1085.80044922 663.68654297 -1086.62304688 665.45996094 C-1087.99696952 668.38495958 -1089.43905073 671.27103619 -1090.89648438 674.15527344 C-1091.52671509 675.42528198 -1091.52671509 675.42528198 -1092.16967773 676.72094727 C-1092.99040123 678.37271483 -1093.82516601 680.01760492 -1094.67602539 681.65405273 C-1097.17927024 686.73351545 -1097.84261783 689.73441479 -1096.43164062 695.26074219 C-1088.74038481 687.66684404 -1081.20693032 679.68407532 -1074.43164062 671.26074219 C-1074.43164062 670.60074219 -1074.43164062 669.94074219 -1074.43164062 669.26074219 C-1073.77164063 669.26074219 -1073.11164063 669.26074219 -1072.43164062 669.26074219 C-1071.08066689 667.74922673 -1069.80236718 666.17260906 -1068.55664062 664.57324219 C-1065.00711791 660.12777885 -1061.32605159 655.90578663 -1057.43164062 651.76074219 C-1052.97210354 647.00063301 -1048.79360276 642.09598977 -1044.70898438 637.00683594 C-1042.21336506 633.99753855 -1039.59378209 631.12155777 -1036.93164062 628.26074219 C-1032.70083039 623.70835538 -1028.70888341 619.01459996 -1024.81054688 614.17480469 C-1022.07258546 610.82091435 -1019.25932931 607.53894548 -1016.43164062 604.26074219 C-1012.18298063 599.3270928 -1008.00421145 594.34742363 -1003.90039062 589.29199219 C-1001.99322288 586.95027989 -1000.07639265 584.61814531 -998.15039062 582.29199219 C-991.23508791 573.9373095 -984.42042902 565.52023806 -977.75830078 556.96240234 C-975.03332876 553.46717692 -972.28938129 549.98681377 -969.54931641 546.50341797 C-967.28926821 543.62895667 -965.03328209 540.75153172 -962.78710938 537.86621094 C-957.11045971 530.58658304 -951.30725356 523.423425 -945.42382812 516.30981445 C-941.66401794 511.76341787 -937.9495415 507.18537719 -934.27539062 502.56933594 C-928.47674294 495.30874106 -922.53310398 488.17488206 -916.51611328 481.09521484 C-913.63656322 477.70178202 -910.7998159 474.27833236 -907.99414062 470.82324219 C-904.49064773 466.52092775 -900.91668308 462.28598339 -897.30664062 458.07324219 C-896.79738037 457.47455322 -896.28812012 456.87586426 -895.76342773 456.2590332 C-893.57968127 453.7029968 -891.38667874 451.21453136 -889.04101562 448.80371094 C-888.38617187 448.12953125 -887.73132813 447.45535156 -887.05664062 446.76074219 C-886.49203125 446.21417969 -885.92742187 445.66761719 -885.34570312 445.10449219 C-884.13546411 443.17616165 -884.13546411 443.17616165 -885.16333008 440.57617188 C-886.51035344 437.0549828 -888.09216005 433.71926925 -889.81054688 430.37011719 C-890.53211186 428.94501131 -891.25362555 427.51987946 -891.97509766 426.09472656 C-892.36820129 425.32185303 -892.76130493 424.54897949 -893.1663208 423.75268555 C-897.07030597 416.06410774 -900.92634291 408.35108775 -904.79467773 400.64453125 C-905.84108622 398.56177435 -906.88892934 396.47973759 -907.93823242 394.3984375 C-913.73531883 382.89669908 -919.42316701 371.38201888 -924.58201599 359.57720947 C-926.30825764 355.64408237 -928.01826106 351.83539006 -930.43164062 348.26074219 C-930.76164063 348.26074219 -931.09164062 348.26074219 -931.43164062 348.26074219 Z M-831.22460938 391.04199219 C-832.3620055 392.27617723 -833.49316209 393.5161318 -834.61914062 394.76074219 C-835.20848389 395.40495117 -835.79782715 396.04916016 -836.4050293 396.71289062 C-838.08713044 398.55635275 -839.76103294 400.40686555 -841.43164062 402.26074219 C-842.13546875 403.03933594 -842.83929687 403.81792969 -843.56445312 404.62011719 C-847.36580325 408.89884616 -850.92341613 413.35080243 -854.43945312 417.86621094 C-856.63013484 420.49932445 -858.99354398 422.85549415 -861.43164062 425.26074219 C-863.33037891 427.23907032 -865.19593303 429.24667957 -867.05664062 431.26074219 C-867.53359375 431.76863281 -868.01054688 432.27652344 -868.50195312 432.79980469 C-871.24389922 435.77024629 -873.48909692 438.71462214 -875.43164062 442.26074219 C-870.15387112 451.88778471 -864.70336734 461.23462828 -858.43164062 470.26074219 C-857.85800781 471.09863281 -857.284375 471.93652344 -856.69335938 472.79980469 C-852.7966054 478.4433794 -848.71956853 483.94166164 -844.58007812 489.40917969 C-843.23551209 491.19378552 -841.90495743 492.98913383 -840.59570312 494.79980469 C-840.0671875 495.52941406 -839.53867187 496.25902344 -838.99414062 497.01074219 C-838.31544922 497.96207031 -838.31544922 497.96207031 -837.62304688 498.93261719 C-837.03330078 499.59003906 -837.03330078 499.59003906 -836.43164062 500.26074219 C-835.77164063 500.26074219 -835.11164063 500.26074219 -834.43164062 500.26074219 C-833.77164063 501.58074219 -833.11164063 502.90074219 -832.43164062 504.26074219 C-831.77164063 504.26074219 -831.11164063 504.26074219 -830.43164062 504.26074219 C-830.43164062 504.92074219 -830.43164062 505.58074219 -830.43164062 506.26074219 C-828.2036328 507.57186552 -828.2036328 507.57186552 -825.43164062 508.26074219 C-822.90439345 507.12962927 -822.90439345 507.12962927 -820.68164062 505.13574219 C-819.90304687 504.51441406 -819.12445312 503.89308594 -818.32226562 503.25292969 C-813.52988929 498.20311165 -815.23557927 489.64589068 -815.24414062 483.13574219 C-815.2440802 482.43855072 -815.24401978 481.74135925 -815.24395752 481.02304077 C-815.25779483 469.68625988 -815.64819194 458.39010206 -816.30664062 447.07324219 C-816.36544907 446.02121613 -816.36544907 446.02121613 -816.42544556 444.94793701 C-817.25599511 430.42495312 -819.66911386 416.56464793 -823.05664062 402.44824219 C-823.38523121 401.06228478 -823.71335862 399.67621748 -824.04101562 398.29003906 C-824.83257905 394.94566188 -825.63031639 391.60279591 -826.43164062 388.26074219 C-828.8523728 388.02553597 -828.8523728 388.02553597 -831.22460938 391.04199219 Z M-882.43164062 449.26074219 C-884.2787463 451.24218282 -886.01780482 453.2400276 -887.74414062 455.32324219 C-888.83601069 456.62060373 -889.9284782 457.91746265 -891.02148438 459.21386719 C-891.86815674 460.22223633 -891.86815674 460.22223633 -892.73193359 461.25097656 C-894.8647511 463.77286018 -897.03503129 466.26035376 -899.20947266 468.74633789 C-906.18774727 476.72836616 -912.94132823 484.88324205 -919.65234375 493.09033203 C-921.44217364 495.2735905 -923.24015907 497.44985419 -925.04101562 499.62402344 C-930.89030443 506.68946163 -936.68028618 513.78844054 -942.3190918 521.02319336 C-945.80044452 525.48230396 -949.35445365 529.87825561 -952.93164062 534.26074219 C-958.85639574 541.52399177 -964.66434068 548.87218077 -970.43164062 556.26074219 C-977.83605442 565.74663102 -985.34614915 575.13731011 -992.95947266 584.45654297 C-994.25435574 586.04347265 -995.54454541 587.63422955 -996.83398438 589.22558594 C-1001.45797709 594.91986991 -1006.19440335 600.50619867 -1010.98388672 606.06103516 C-1014.08637229 609.66657297 -1017.1264087 613.31291636 -1020.11914062 617.01074219 C-1023.67142878 621.38869732 -1027.3919512 625.5718787 -1031.18945312 629.73730469 C-1033.47679966 632.31156577 -1035.64712333 634.95363708 -1037.80664062 637.63574219 C-1041.96726137 642.77832762 -1046.37520367 647.63525955 -1050.86914062 652.48339844 C-1053.53350201 655.37114379 -1056.12544766 658.31043602 -1058.69726562 661.28027344 C-1060.70428601 663.57207374 -1062.75566914 665.82070971 -1064.80664062 668.07324219 C-1067.95482697 671.55759081 -1070.97689098 675.11106014 -1073.93164062 678.76074219 C-1078.88976198 684.88497223 -1084.13089147 690.73747062 -1089.51757812 696.48730469 C-1090.14921875 697.17566406 -1090.78085938 697.86402344 -1091.43164062 698.57324219 C-1091.98851562 699.1675 -1092.54539062 699.76175781 -1093.11914062 700.37402344 C-1096.09760391 704.65556442 -1095.38106186 708.88938092 -1094.50585938 713.80371094 C-1094.28607422 715.04185547 -1094.06628906 716.28 -1093.83984375 717.55566406 C-1093.4830957 719.48249023 -1093.4830957 719.48249023 -1093.11914062 721.44824219 C-1092.77979492 723.3924707 -1092.77979492 723.3924707 -1092.43359375 725.37597656 C-1091.65538404 731.90306109 -1091.65538404 731.90306109 -1088.43164062 737.26074219 C-1087.94695312 736.76445313 -1087.46226562 736.26816406 -1086.96289062 735.75683594 C-1082.98319576 731.72356826 -1078.92504749 727.86999996 -1074.63085938 724.17480469 C-1072.02772181 721.9091965 -1069.48005338 719.58770667 -1066.93164062 717.26074219 C-1063.87777488 714.4738811 -1060.81481075 711.70799299 -1057.68164062 709.01074219 C-1053.66946515 705.52910232 -1049.80633098 701.89350065 -1045.93164062 698.26074219 C-1041.47812108 694.08529606 -1037.01203074 689.94733889 -1032.38476562 685.96386719 C-1028.98246825 682.99706387 -1025.66702814 679.93410907 -1022.33789062 676.88574219 C-1020.10678501 674.87055002 -1017.85779347 672.88764026 -1015.58789062 670.91699219 C-1011.43960558 667.29752535 -1007.42802084 663.54637579 -1003.43164062 659.76074219 C-998.78149402 655.35581816 -994.08123126 651.03630232 -989.24414062 646.83691406 C-986.94749768 644.83972564 -984.68779591 642.80347738 -982.43164062 640.76074219 C-979.51675133 638.12893774 -976.58890852 635.51787293 -973.61914062 632.94824219 C-970.62086599 630.34288661 -967.70364347 627.66233186 -964.79980469 624.953125 C-959.41658245 619.93274633 -953.93157825 615.15801351 -948.18945312 610.54589844 C-944.05165088 607.11726627 -940.13492956 603.46181306 -936.19335938 599.81152344 C-932.66671536 596.5542412 -929.06960331 593.39255355 -925.43164062 590.26074219 C-924.92906738 589.82648926 -924.42649414 589.39223633 -923.90869141 588.94482422 C-917.99287466 583.83485611 -912.06779192 578.74561928 -905.99414062 573.82324219 C-901.61472874 570.27219414 -897.36019722 566.59909974 -893.11914062 562.88574219 C-887.70378848 558.15246589 -882.17506513 553.62010555 -876.4909668 549.21435547 C-872.73927344 546.30314748 -869.06666502 543.31801436 -865.43164062 540.26074219 C-860.59257523 536.19386808 -855.65795711 532.27522628 -850.67333984 528.39038086 C-844.81588919 523.81051818 -839.11259598 519.05729973 -833.43164062 514.26074219 C-837.20567072 509.79847699 -837.20567072 509.79847699 -841.11914062 505.45996094 C-851.53167581 494.26199745 -860.54130588 481.33337087 -868.43164062 468.26074219 C-869.47339542 466.56417009 -870.51521707 464.86763786 -871.55908203 463.17236328 C-872.55548916 461.55176744 -873.54648617 459.92784878 -874.53710938 458.30371094 C-877.38146202 453.71374044 -877.38146202 453.71374044 -880.43164062 449.26074219 C-881.09164062 449.26074219 -881.75164062 449.26074219 -882.43164062 449.26074219 Z M-1103.43164062 700.26074219 C-1103.76164062 701.58074219 -1104.09164062 702.90074219 -1104.43164062 704.26074219 C-1103.77164063 703.93074219 -1103.11164063 703.60074219 -1102.43164062 703.26074219 C-1102.76164062 702.27074219 -1103.09164062 701.28074219 -1103.43164062 700.26074219 Z M-1101.43164062 711.26074219 C-1103.40427245 713.46615054 -1105.33343498 715.69013552 -1107.24414062 717.94824219 C-1107.77845703 718.57408203 -1108.31277344 719.19992187 -1108.86328125 719.84472656 C-1110.39436712 721.64323457 -1111.91364086 723.45118884 -1113.43164062 725.26074219 C-1114.15867187 726.1128125 -1114.88570312 726.96488281 -1115.63476562 727.84277344 C-1117.64520342 730.54812342 -1118.97731962 733.18913721 -1120.36914062 736.26074219 C-1120.78933472 737.18137451 -1120.78933472 737.18137451 -1121.21801758 738.12060547 C-1122.2981398 740.49670745 -1123.36477971 742.87865513 -1124.43164062 745.26074219 C-1125.21529037 747.00213031 -1125.99895188 748.74351315 -1126.78282166 750.48480225 C-1129.86524673 757.33434131 -1132.93834169 764.1880166 -1135.99560547 771.04882812 C-1136.89502046 773.06050843 -1137.80062398 775.06944591 -1138.71533203 777.07421875 C-1139.08190918 777.88084961 -1139.44848633 778.68748047 -1139.82617188 779.51855469 C-1140.14046143 780.20320801 -1140.45475098 780.88786133 -1140.77856445 781.59326172 C-1141.55320131 783.27265126 -1141.55320131 783.27265126 -1141.43164062 785.26074219 C-1138.03698707 783.80263596 -1135.9091235 781.92307491 -1133.36914062 779.26074219 C-1131.09510206 776.88631421 -1129.18642134 775.09726266 -1126.43164062 773.26074219 C-1126.43164062 772.60074219 -1126.43164062 771.94074219 -1126.43164062 771.26074219 C-1125.87992188 771.03773438 -1125.32820313 770.81472656 -1124.75976562 770.58496094 C-1121.70107303 768.84520122 -1119.62425942 766.60309737 -1117.18164062 764.07324219 C-1113.96873921 760.78329534 -1110.74098201 757.56459957 -1107.24414062 754.57324219 C-1106.62410156 754.01894531 -1106.0040625 753.46464844 -1105.36523438 752.89355469 C-1103.43164062 751.26074219 -1103.43164062 751.26074219 -1101.09179688 749.69042969 C-1098.43954575 747.66837157 -1096.96756146 746.24121179 -1095.43164062 743.26074219 C-1094.80705813 737.23453352 -1096.23731456 731.14126929 -1097.43164062 725.26074219 C-1097.57166504 724.53757812 -1097.71168945 723.81441406 -1097.85595703 723.06933594 C-1098.62814427 719.11129835 -1099.48627771 715.18084706 -1100.43164062 711.26074219 C-1100.76164062 711.26074219 -1101.09164062 711.26074219 -1101.43164062 711.26074219 Z M-1095.77929688 751.54589844 C-1096.34519531 752.13242187 -1096.91109375 752.71894531 -1097.49414062 753.32324219 C-1099.91110627 755.77919115 -1102.36254639 758.09999878 -1104.99414062 760.32324219 C-1109.00905645 763.77466105 -1112.71031475 767.50013074 -1116.43164062 771.26074219 C-1120.72662752 775.60107072 -1125.04671356 779.80726894 -1129.70898438 783.75683594 C-1132.14825232 785.88635557 -1134.38258907 788.19790166 -1136.64257812 790.51464844 C-1139.10091238 792.91393973 -1141.75111686 795.05816833 -1144.43945312 797.19433594 C-1150.87948199 803.87428745 -1153.81244767 812.63551199 -1157.11914062 821.13574219 C-1157.64714274 822.47637721 -1158.17571663 823.81678717 -1158.70483398 825.15698242 C-1160.29237085 829.18695321 -1161.86361092 833.22314908 -1163.43164062 837.26074219 C-1163.87733398 838.40591309 -1164.32302734 839.55108398 -1164.78222656 840.73095703 C-1167.26647171 847.12544617 -1169.72123995 853.53073789 -1172.16210938 859.94189453 C-1173.49008965 863.41354142 -1174.83491789 866.87835751 -1176.18164062 870.34277344 C-1205.76596295 946.82631322 -1210.9994253 1027.31738231 -1197.43164062 1108.26074219 C-1197.17108887 1109.82429443 -1197.17108887 1109.82429443 -1196.90527344 1111.41943359 C-1190.83911979 1146.42035524 -1178.9770028 1189.73864624 -1148.38867188 1211.72949219 C-1144.0044486 1214.34693892 -1140.14736419 1215.3800893 -1135.10058594 1215.40600586 C-1134.25159729 1215.41238571 -1133.40260864 1215.41876556 -1132.52789307 1215.42533875 C-1131.15766998 1215.42700798 -1131.15766998 1215.42700798 -1129.75976562 1215.42871094 C-1128.80455017 1215.43203934 -1127.84933472 1215.43536774 -1126.86517334 1215.438797 C-1124.83769206 1215.44386044 -1122.81020244 1215.4462055 -1120.78271484 1215.44604492 C-1117.73455269 1215.4482047 -1114.68676872 1215.46629167 -1111.63867188 1215.48535156 C-1090.48113587 1216.69151535 -1090.48113587 1216.69151535 -1072.43164062 1208.26074219 C-1064.3046075 1187.15471587 -1067.26862481 1159.41170935 -1067.26438355 1137.28275967 C-1067.26366026 1135.14835552 -1067.26150226 1133.01395737 -1067.25888634 1130.87955475 C-1067.2496795 1123.34059761 -1067.24554386 1115.80165788 -1067.24633789 1108.26269531 C-1067.24686617 1102.14482974 -1067.23991071 1096.0270288 -1067.22583008 1089.90917969 C-1067.14527818 1054.08846629 -1067.40097422 1018.36140092 -1069.30838394 982.57888031 C-1069.42242762 980.43401494 -1069.53282697 978.28900567 -1069.64144897 976.14385986 C-1070.00262592 969.07523704 -1070.41325388 962.01133949 -1070.86914062 954.94824219 C-1070.93200256 953.94987335 -1070.9948645 952.95150452 -1071.05963135 951.92288208 C-1072.14111 934.76535576 -1073.43667581 917.63474679 -1074.96630859 900.51171875 C-1075.41715258 895.45247954 -1075.85096636 890.39183394 -1076.28466797 885.33110046 C-1079.48169443 848.08450328 -1083.36665282 811.15568384 -1089.43164062 774.26074219 C-1089.63354004 773.0311377 -1089.83543945 771.8015332 -1090.04345703 770.53466797 C-1091.15699039 763.77399498 -1092.28471534 757.01583054 -1093.43164062 750.26074219 C-1094.62139317 750.14572111 -1094.62139317 750.14572111 -1095.77929688 751.54589844 Z M-1136.43164062 754.26074219 C-1137.24955078 755.26041016 -1137.24955078 755.26041016 -1138.08398438 756.28027344 C-1149.93164063 770.76074219 -1149.93164063 770.76074219 -1152.18164062 773.50683594 C-1153.68675016 775.34902729 -1155.18672694 777.19542369 -1156.68164062 779.04589844 C-1161.04020596 784.42600252 -1165.53262714 789.62555639 -1170.19335938 794.74511719 C-1173.22958942 798.15756422 -1176.08942113 801.70013709 -1178.95898438 805.25292969 C-1180.80100706 807.49362079 -1182.66219512 809.70151303 -1184.56054688 811.89355469 C-1185.09832764 812.51456055 -1185.6361084 813.13556641 -1186.19018555 813.77539062 C-1187.24311159 814.98718588 -1188.29911694 816.19631456 -1189.35864258 817.40234375 C-1192.0809462 820.5370355 -1194.41788203 823.60309903 -1196.43164062 827.26074219 C-1191.774041 825.92801621 -1188.31583028 824.05485875 -1184.36914062 821.26074219 C-1183.53213623 820.6690625 -1183.53213623 820.6690625 -1182.67822266 820.06542969 C-1177.54563732 816.4068987 -1172.51331552 812.61900025 -1167.57226562 808.70605469 C-1165.5642221 807.14257801 -1163.51410051 805.63082475 -1161.41601562 804.19042969 C-1153.66395326 798.61995864 -1150.73283661 792.47678944 -1147.46679688 783.86132812 C-1146.2394468 780.77790054 -1144.89071447 777.762143 -1143.52539062 774.73730469 C-1143.01556641 773.60679687 -1142.50574219 772.47628906 -1141.98046875 771.31152344 C-1140.95564283 769.04475842 -1139.92833603 766.77911324 -1138.8984375 764.51464844 C-1138.20331055 762.95423828 -1138.20331055 762.95423828 -1137.49414062 761.36230469 C-1137.07261719 760.42725098 -1136.65109375 759.49219727 -1136.21679688 758.52880859 C-1135.95769531 757.78034668 -1135.69859375 757.03188477 -1135.43164062 756.26074219 C-1135.92664062 755.27074219 -1135.92664062 755.27074219 -1136.43164062 754.26074219 Z " fill="#000000" transform="translate(1685.431640625,172.7392578125)"/>
<path d="M0 0 C0.78375 0.04125 1.5675 0.0825 2.375 0.125 C3.035 1.775 3.695 3.425 4.375 5.125 C3.1875 6.6875 3.1875 6.6875 1.375 8.125 C-1.3125 7.8125 -1.3125 7.8125 -3.625 7.125 C-4.25 4.75 -4.25 4.75 -4.625 2.125 C-2.625 0.125 -2.625 0.125 0 0 Z " fill="#000000" transform="translate(1282.625,751.875)"/>
</svg>
