<?xml version="1.0" encoding="utf-8"?>
<!-- Generator: Adobe Illustrator 26.3.1, SVG Export Plug-In . SVG Version: 6.00 Build 0)  -->
<svg version="1.1" id="Layer_1" xmlns="http://www.w3.org/2000/svg" xmlns:xlink="http://www.w3.org/1999/xlink" x="0px" y="0px"
	 viewBox="0 0 752 739" style="enable-background:new 0 0 752 739;" xml:space="preserve">
<style type="text/css">
	.st0{display:none;}
	.st1{display:inline;}
	.st2{stroke:#000000;stroke-width:2;stroke-miterlimit:10;}
</style>
<g class="st0">
	<g class="st1">
		<path d="M273,415.8c-10-5.4-20.9-9.5-31.7-13c-23.6-7.8-48.6-12.3-73.5-12c-58.5,0.7-113.8,31.9-141.6,83.9
			c-21.4,40-27,87.8-18.4,132.1c8.5,43.7,32.8,85,71.7,108.2c40.1,23.9,92.7,26.8,136.3,11.1c43.1-15.5,80.2-45.5,111.8-77.9
			c39.3-40.3,72.2-87,99.6-136.1c29.2-52.4,52.6-108.5,68.1-166.5c14.8-55.4,22.8-113.5,18-170.8c-4.1-48.1-17.2-98.7-45.3-138.6
			c-14.7-20.9-37.8-39.8-64.1-27.3c-11.7,5.5-20.7,15.5-28.2,25.7c-9.8,13.3-17.1,28.3-23.5,43.6c-16.6,39.7-26.3,82.4-32.4,124.8
			c-6.9,47.6-9.4,96.1-5.5,144.1c3.4,42.3,11.4,85.7,31.1,123.7c25.2,48.4,73.1,87.8,127.2,97.9c47.9,8.9,99.4-3.7,138.4-32.9
			c30.8-23.1,58.5-60.8,41-100.4c-9.2-20.9-30.3-32.4-52.9-29.1c-20.8,3.1-39.1,18.7-44.1,39.4c-5.6,23.3,4.2,51.2,23.7,65.3
			c16.9,12.2,39.3,13.6,59.3,10.4c8-1.3,15.9-3.5,23.4-6.8c4.9-2.1,10.6-5,13.3-9.8c-3.7-1-7.5-2-11.2-3
			c0.6,12.6,6.4,28.4,20.4,30.8c7.6,1.3,10.8-10.3,3.2-11.6c-5.5-0.9-8.2-5.2-9.9-10.3c-0.7-2.2-1.2-4.5-1.6-6.8c0,0,0-0.1-0.1-1.1
			c0-0.3,0-0.6-0.1-0.9c-0.3-5.8-8.1-8.4-11.2-3c-0.5,0.8-0.5,0.6,0.2-0.1c-0.3,0.3-0.6,0.7-0.9,0.9c-0.5,0.4-1.2,1-0.2,0.2
			c-0.6,0.4-1.2,0.8-1.8,1.2c-2.4,1.5-5.6,3-7.4,3.7c-7.4,2.8-15.2,4.8-23,5.7c-17.9,2-38-0.4-51.2-13.8
			c-14.2-14.5-19.6-40.9-8.9-58.7c9.1-15.1,28.4-23.3,45.5-18.9c19.2,5,29.6,25.7,29.1,43.6c-0.4,15-8.6,30.2-18.7,42.2
			c-27.4,32.5-70.7,51.9-112.8,54.7c-24.7,1.6-49.8-2.5-72.5-12.6c-27.6-12.3-50.8-32.4-69.3-56c-24.1-30.7-35.5-69.1-41.8-107.1
			c-7.3-44.1-7.7-89.4-4.2-133.9c3.4-43.5,10.7-86.9,23.3-128.7c5.2-17.4,11.3-34.5,19.2-50.9c3.4-7,7-13.9,11.1-20.4
			c3.8-6.1,7.1-10.7,11.6-15.7c1.9-2.2,4-4.3,6.2-6.3c1-1,2.1-1.9,3.2-2.8c0.8-0.6-0.6,0.4,0.7-0.5c0.6-0.4,1.2-0.8,1.7-1.2
			c2.1-1.4,4.2-2.6,6.5-3.7c0.5-0.2,1.8-0.8,0.5-0.3c0.6-0.2,1.2-0.5,1.8-0.7c1.1-0.4,2.3-0.7,3.4-1c3.5-0.8,8-0.8,11.5,0
			c5.3,1.3,7.9,2.7,13,6.2c1.2,0.9,0.9,0.6,2.6,2c1.3,1.1,2.6,2.3,3.8,3.5c2.5,2.4,4.8,5,7,7.7c5,6.1,9.8,13.8,13.9,21.1
			c11.3,20.3,19.6,42.2,25.3,64.7c12.9,51,12.4,105,4.4,156.8c-8.6,56.3-25.8,111.4-48.7,163.4c-22.5,51.2-50.6,100.1-84.4,144.7
			c-28.9,38.2-62.5,74.3-102.3,101.3c-16.3,11.1-33.8,20.7-52.6,27c-20.5,6.9-41.6,8.9-63.2,7.3C101.7,720.2,62.7,697,39.9,659
			c-21.4-36.3-28.2-80.9-21.6-122c7.3-46.3,31.3-88,72-112.7c45.8-27.8,101.8-25.9,151.1-8.9c9.5,3.3,16.9,6.1,25.7,10.8
			C273.8,429.8,279.8,419.5,273,415.8L273,415.8z"/>
	</g>
</g>
<g class="st0">
	<path class="st1" d="M747.3,525.3c1.3,3.1,1.5,5.9,0.6,8.5c-1.5,4.3-4.5,5.7-9,4.1c-2.5-0.9-4.5-2.9-5.8-6s-1.5-5.9-0.6-8.5
		c1.5-4.3,4.5-5.7,9-4.1C744,520.2,745.9,522.2,747.3,525.3z"/>
</g>
<path class="st2" d="M718.8,14.5c2,0,3.9,0,5.9,0c1.3,0,2.5,0,3.8,0c0.6,0,1.2,0,1.8,0c7.9,0.1,7.9,0.1,10.6,2.4
	c0.8,2,0.7,2.8,0,4.8c-4.3,6.9-13.3,11.5-19.9,15.8c-1.1,0.7-2.2,1.5-3.3,2.2c-7,4.7-14.1,9.2-21.3,13.6c-1,0.6-1,0.6-2,1.2
	c-14.5,8.8-29.7,16-45.1,22.9c-0.7,0.3-0.7,0.3-1.5,0.7c-5.9,2.7-11.8,5.2-17.8,7.6c-2.2,0.9-4.3,1.8-6.5,2.8
	c-0.4,0.2-0.8,0.4-1.3,0.6c-0.4,0.2-0.7,0.3-1.1,0.5c-3.4,1.5-6.8,3-10.2,4.4c-1,0.4-1,0.4-2.1,0.9c-1.1,0.5-2.2,0.9-3.3,1.4
	c-2.9,1.2-5.8,2.5-8.7,3.7c-0.4,0.2-0.9,0.4-1.3,0.6c-1.8,0.8-3.5,1.5-5.3,2.3c-1.3,0.6-2.6,1.1-3.9,1.7c-0.4,0.2-0.8,0.4-1.3,0.5
	c-2.4,1-4.8,2.1-7.2,3.1c-8.6,3.7-17.1,7.3-25.5,11.3c-1.4,0.7-2.8,1.3-4.1,1.9c-5.6,2.6-11.1,5.3-16.5,8.2c-2.8,1.5-5.7,3-8.5,4.4
	c-9.4,4.7-18.7,9.6-27.9,14.7c-2.2,1.2-4.5,2.4-6.7,3.7c-7.6,4.1-15.1,8.3-22.6,12.5c-1.7,0.9-3.4,1.9-5,2.8
	c-16.3,9.1-32.3,18.7-48.2,28.4c-1.5,1-3.1,1.9-4.6,2.9c-6.5,4-13,8-19.5,12.1c-3.2,2-6.4,4-9.7,5.9c-4,2.5-8,5-12,7.5
	c-3.5,2.2-7.1,4.4-10.6,6.6c-4.8,2.9-9.5,5.9-14.2,9c-1.3,0.8-2.5,1.6-3.8,2.4c-11.3,7.3-22.5,14.6-33.5,22.4
	c-1.6,1.1-3.3,2.3-4.9,3.4c-11.1,7.7-22,15.8-32.8,23.9c-0.6,0.4-1.1,0.8-1.7,1.3c-3.1,2.3-6.2,4.6-9.2,7c-0.3,0.2-0.6,0.5-1,0.7
	c-1.5,1.1-2.9,2.3-4.3,3.4c-0.5,0.4-0.9,0.7-1.4,1.1c-0.4,0.3-0.8,0.7-1.2,1c-1,0.7-1,0.7-2.2,0.7c0,0.3,0,0.7-0.1,1
	c-0.3,3.6-0.9,5.8-3.6,8.4c-2,1.3-2.9,1.2-5.3,0.9c-2.9-0.1-4.4,0.1-6.6,2.1c-0.4,0.4-0.8,0.9-1.3,1.3c-1.6,1.7-3.4,3.1-5.3,4.5
	c-4.6,3.6-9.2,7.3-13.7,11c-0.6,0.5-1.2,1-1.8,1.5c-1,0.9-2.1,1.7-3.1,2.6c-1,0.8-2,1.6-3,2.5c-3.5,2.9-7,5.8-10.5,8.8
	c-2.2,1.9-4.3,3.7-6.6,5.5c-3,2.4-5.7,4.9-8.5,7.5c-2.7,2.5-5.4,4.8-8.2,7.2c-3.7,3.2-7.4,6.4-11,9.7c-1.6,1.4-3.1,2.9-4.7,4.2
	c-2.1,1.8-4.1,3.7-6.2,5.6c-4.5,4.1-4.5,4.1-6.5,6c-0.3,0.3-0.7,0.6-1,0.9c-0.9,0.7-0.9,0.7-2.7,1.3c0,0.4,0,0.8,0,1.2
	c-0.8,0.8-0.8,0.8-1.9,1.7c-2.1,1.8-4.1,3.6-6.1,5.4c-0.3,0.3-0.6,0.5-0.9,0.8c-1.6,1.5-3.2,2.9-4.7,4.4c-9.1,8.4-9.1,8.4-13.7,12.4
	c-2.7,2.4-5.4,4.9-8,7.4c-1.8,1.7-3.7,3.4-5.6,5.1c-2.5,2.1-4.9,4.4-7.2,6.6c-0.4,0.4-0.8,0.8-1.2,1.2c-1.6,1.5-1.6,1.5-3.3,3.1
	c-0.5,0.4-0.5,0.4-1,0.8c-0.9,0.9-0.9,0.9-0.8,2.3c0.1,0.5,0.2,1.1,0.3,1.6c0.1,0.6,0.2,1.2,0.3,1.8c0.1,0.7,0.2,1.3,0.4,2
	c0.2,1.4,0.5,2.8,0.7,4.2c0.1,0.7,0.2,1.4,0.4,2.2c0.9,5.1,1.6,10.3,2.4,15.4c0.2,1.2,0.4,2.5,0.6,3.7c3.5,22.8,5,46,6.9,69
	c0.2,3,0.5,6.1,0.8,9.1c3.3,38,3.2,76.3,3.2,114.5c0,1.1,0,2.3,0,3.4c0,7.7-0.1,15.5-0.3,23.2c0,1.1-0.1,2.2-0.1,3.4
	c-0.5,15.4-0.5,15.4-5.1,21.5c-4.9,3.8-11.9,3.7-17.9,3.8c-0.5,0-0.9,0-1.4,0c-1,0-2,0.1-2.9,0.1c-1.5,0-2.9,0.1-4.4,0.2
	c-17,0.5-17,0.5-23.1-4c-0.5-0.4-0.5-0.4-1.1-0.8c-1-0.8-1-0.8-2.4-2.1c0-0.4,0-0.8,0-1.2c-0.6-0.2-1.2-0.4-1.8-0.6
	c-1.1-1.2-2.1-2.4-3.1-3.7c-0.4-0.6-0.4-0.6-0.9-1.1c-9.6-12.5-14.1-26.8-17.7-42c-0.1-0.6-0.3-1.1-0.4-1.7c-1.9-8-3-16-3.8-24.2
	c0-0.4-0.1-0.9-0.1-1.4c-1.4-13-1.6-25.9-1.6-39c0-1.6,0-3.2,0-4.7c0-9.6,0.1-19.1,1.3-28.6c0.1-0.7,0.2-1.4,0.2-2.1
	c0.2-1.6,0.5-3.2,0.7-4.8c0.1-0.9,0.1-0.9,0.3-1.7c1.9-10.5,4.9-20.6,8.8-30.6c0.6-1.5,1.1-3.1,1.6-4.6
	c4.9-14.3,10.7-28.3,16.4-42.3c-0.3,0.2-0.6,0.4-0.9,0.6C19,505.4,19,505.4,13.6,505.3c-1.2-1.2-1.2-1.2-1.5-2.9
	c0.3-7.6,10.6-16.1,15.5-21.5c1.8-2,3.5-4.2,5.2-6.3c1.3-1.5,2.6-3,4-4.5c2.3-2.5,4.4-5.1,6.5-7.7c1.2-1.5,2.4-2.9,3.7-4.4
	c3.2-3.7,6.2-7.5,9.1-11.4c0.3-0.4,0.6-0.8,0.9-1.2c0.3-0.4,0.6-0.8,0.9-1.2c0.8-1.1,0.8-1.1,2.3-2.6c2.4-2.9,3.8-6.6,5.3-10.1
	c0.3-0.7,0.7-1.5,1-2.2c0.6-1.4,1.3-2.8,1.9-4.2c0.5-1.1,1.1-2.2,1.6-3.3c2-3.7,1.6-6.7,1-10.8c-0.1-0.4-0.1-0.8-0.2-1.2
	c-0.4-2.9-0.9-5.7-1.4-8.5c-0.5-2.8-0.9-5.6-1.4-8.4c-0.1-0.6-0.2-1.2-0.3-1.8c-1-6.2-2-12.4-2.9-18.6c-0.1-0.6-0.2-1.1-0.3-1.7
	c-0.3-2.3-0.7-4.5-1-6.8c-0.6-4.1-1.2-8.2-1.9-12.2c-2.9-18.7-5.5-37.4-7.7-56.1c-0.1-1.1-0.1-1.1-0.3-2.2
	c-2-17.6-2.8-35.2-2.8-52.9c0-0.6,0-1.2,0-1.9c0-11.3,0.6-22.1,3.4-33c0.2-0.7,0.4-1.5,0.5-2.3c1.3-5.4,1.3-5.4,2.7-6.7
	c2.7,0.3,2.7,0.3,3.5,1.2c-0.1,4-1.2,7.9-2.3,11.7c-3,10.8-3.2,21.6-3.2,32.8c0,0.8,0,1.6,0,2.4c0,15.7,1,31.2,2.6,46.8
	c0.1,0.6,0.1,1.1,0.2,1.7c0.8,7.4,1.6,14.7,2.6,22.1c0.2,1.3,0.3,2.6,0.5,3.8c1.2,9.5,2.6,18.9,4.2,28.4c2.1,12.6,3.9,25.2,5.8,37.8
	c1.2,8.1,2.5,16.3,3.8,24.4c1.3-1.3,1.8-2.3,2.5-4c0.3-0.6,0.5-1.2,0.8-1.7c0.3-0.6,0.6-1.2,0.8-1.9c0.3-0.6,0.6-1.3,0.9-1.9
	c1.9-4.2,3.8-8.4,5.6-12.6c3-6.8,6.2-13.5,9.4-20.2c1.3-2.6,2.5-5.3,3.7-7.9c1.5-3.3,3.1-6.5,4.7-9.7c0.4-0.8,0.8-1.7,1.2-2.5
	c0.2-0.4,0.4-0.8,0.6-1.3c1-2,2-4,3-6c0.4-0.8,0.8-1.6,1.2-2.4c0.2-0.4,0.4-0.8,0.6-1.3c1.4-2.7,2.7-5.5,4.1-8.2
	c1.2-2.4,2.4-4.8,3.6-7.1c9.2-18.5,9.2-18.5,13.8-27.2c1.8-3.4,3.5-6.8,5.2-10.2c1.4-2.8,2.8-5.7,4.3-8.5c1.1-2.3,2.3-4.5,3.4-6.8
	c1-1.9,1.9-3.9,2.9-5.8c4.8-9.6,9.6-19.3,14.2-29c0.2-0.5,0.5-1,0.7-1.5c1-2.1,1.9-4.1,2.9-6.2c0.7-1.6,1.5-3.2,2.3-4.8
	c0.2-0.4,0.4-0.8,0.6-1.2c0.5-1.1,1-2.2,1.6-3.3c1.2-2.8,1.7-4.3,0.6-7.1c-0.4-0.9-0.8-1.9-1.2-2.8c-0.4-1-0.9-2.1-1.3-3.1
	c-0.2-0.6-0.5-1.1-0.7-1.7c-3.6-8.7-6.9-17.4-9.5-26.4c-0.1-0.4-0.3-0.9-0.4-1.3c-3.1-9.8-4.1-20.1-4.3-30.3c0-0.8,0-1.5,0-2.3
	c0-2.2-0.1-4.4-0.1-6.5c0-0.9,0-1.7,0-2.6c-0.1-14.8-0.1-14.8,2.9-20.5c0.3-0.6,0.6-1.1,0.9-1.7c2-2.9,4.1-4.1,7.4-4.8
	c6.5-1,13.3-0.2,19.8,0.4c1.2,0.1,2.3,0.2,3.5,0.3c6.7,0.6,13.1,2.3,18.3,6.7c3.4,4.6,2.6,10.3,1.9,15.7c-0.2,1.4-0.5,2.8-0.7,4.2
	c-0.1,0.6-0.2,1.3-0.3,1.9c-1.9,11.3-6.2,22.2-10.3,32.8c-0.2,0.6-0.2,0.6-0.4,1.1c-1.9,4.8-3.9,9.5-6.2,14.2
	c-1.2,2.5-2.2,5.1-3.2,7.6c-0.9,2.3-1.9,4.6-3,6.9c-0.4,0.9-0.4,0.9-0.8,1.9c-0.8,1.6-1.6,2.8-2.6,4.3c-1.9,2.8-3,5.5-3.1,8.9
	c1.3,6,4.7,11.6,7.5,17c2.2,4.2,4.3,8.4,6.4,12.6c0.8,1.6,1.6,3.2,2.4,4.8c0.2,0.4,0.4,0.8,0.6,1.2c2.1,4.3,4.3,8.7,6.5,13
	c0.2,0.4,0.4,0.7,0.5,1.1c1,2,2,3.9,3,5.9c1.2,0.1,1.2,0.1,2-0.7c2-2,3.9-4.2,5.7-6.4c2.7-3.4,5.7-6.6,8.7-9.8
	c1.7-1.8,3.3-3.6,4.9-5.4c1.7-1.9,3.4-3.8,5.1-5.7c1.8-1.9,1.8-1.9,2.2-4.4c-0.1-0.5-0.2-1.1-0.3-1.6c-0.1-0.6-0.2-1.2-0.3-1.9
	c-0.6-3-1.3-5.9-2-8.8c-0.8-3.2-0.8-3.2-0.8-4.5c-1.1,0.2-1.1,0.2-2.2,0.4c-2.1,0.3-3.6,0.2-5.5-1c-2-2.7-1.8-6.4-1.8-9.6
	c0-0.7,0-1.4,0-2.2c0-0.7,0-1.5,0-2.2c0-0.7,0-1.5,0-2.2c0-9.5,0-9.5,1.8-11.3c1.7-0.3,1.7-0.3,3.5,0c2.1,2.1,2.9,4.3,3.8,7.1
	c0.1,0.4,0.2,0.8,0.4,1.2c1,3.3,2,6.6,2.8,9.9c7.4-6.7,11-19.7,14.3-28.9c0.3-0.7,0.3-0.7,0.5-1.4c0.9-2.4,1.7-4.8,2.5-7.2
	c0.3-0.9,0.6-1.8,0.9-2.7c0.1-0.4,0.3-0.8,0.4-1.3c0.7-2.1,1.1-2.9,3-4.2c1.9,0.2,1.9,0.2,3.5,0.6c0.5,1.6,0.7,3.1,0.7,4.8
	c0,0.5,0,0.9,0,1.4c0,0.5,0,1,0,1.5c0,1.1,0,2.2,0,3.2c0,1.7,0,3.4,0,5.1c0,1.6,0,3.3,0.1,4.9c0,0.8,0,0.8,0,1.5
	c0,2.9,0,2.9,1.4,5.3c1.9,1.3,3.7,1.7,6,2.1c0.6,0.1,1.2,0.2,1.8,0.3c2.8,0.2,4.9,0.4,7.3-1.3c1.3-1.4,2.6-2.8,3.8-4.2
	c1.5-1.4,3.1-2.8,4.7-4.1c0.3-0.3,0.6-0.5,1-0.8c7.5-6.4,15.4-11.6,24-16.5c0.4-0.2,0.8-0.5,1.3-0.7c7.7-4.2,7.7-4.2,12.4-3.1
	c0.6,0.6,0.6,0.6,0.8,2.6c-0.2,9.4-11.2,18.1-17.5,24.1c-2,1.8-4,3.4-6.2,4.9c-0.4,0.3-0.8,0.6-1.2,1c-4.5,3.4-9.3,4.5-14.9,4.2
	c-6.6-0.7-6.6-0.7-12.5,1.5c-1.8,1.7-3.3,3.6-4.7,5.6c-0.7,0.8-1.3,1.5-2,2.2c-0.3,0.4-0.6,0.7-0.9,1.1c-1.7,2-3.5,3.9-5.3,5.8
	c-2.4,2.6-4.8,5.2-7.1,7.8c-1.8,2.1-3.7,4.1-5.6,6.1c-0.6,0.6-1.1,1.2-1.7,1.9c-0.8,0.9-0.8,0.9-1.7,1.7c-1,0.9-1,0.9-2,2.7
	c0,2,0.6,3.9,1.2,5.9c0.2,1,0.5,2,0.7,3c0.2,1,0.5,2,0.7,3c0.4,1.6,0.8,3.2,1.2,4.9c0.3,1.2,0.6,2.5,0.9,3.7
	c3.3,14.9,2.7,30.6,3,45.8c3.4-2.4,6.7-4.8,10-7.4c3.6-2.8,7.3-5.5,11-8.2c3.1-2.3,6.2-4.5,9.2-6.9c5.4-4,10.8-8,16.3-11.8
	c2.4-1.6,4.7-3.3,7.1-5c9.9-7,19.9-13.7,30.1-20.3c1.2-0.8,2.4-1.6,3.6-2.4c11.2-7.3,22.5-14.4,33.9-21.3c2.7-1.7,5.4-3.3,8.1-5
	c0.5-0.3,1-0.6,1.5-0.9c1-0.6,2-1.2,3-1.8c1.6-1,3.1-1.9,4.7-2.9c1.1-0.7,2.1-1.3,3.2-2c0.5-0.3,1-0.6,1.6-1
	c2.3-1.4,4.5-2.8,6.7-4.2c5.3-3.3,10.6-6.6,16-9.8c4.3-2.5,8.5-5.1,12.7-7.7c5-3,10-6,15-9c1.5-0.9,3.1-1.8,4.6-2.7
	c6.7-4,13.5-7.8,20.4-11.6c3.5-2,7-4,10.5-6c1.6-0.9,3.2-1.7,4.8-2.5c3.2-1.6,6.3-3.4,9.4-5.2c5.5-3.2,11.2-6.2,16.8-9.1
	c3.6-1.9,7.2-3.8,10.7-5.8c3.4-2,6.9-3.7,10.4-5.3c3.7-1.7,7.2-3.5,10.7-5.5c7.9-4.2,16.2-7.8,24.3-11.4c0.5-0.2,1-0.5,1.6-0.7
	c7.3-3.3,14.7-6.5,22.1-9.6c4.2-1.8,8.4-3.6,12.7-5.4c1.5-0.6,3-1.3,4.4-1.9c0.7-0.3,1.4-0.6,2.1-0.9c6.5-2.8,13-5.6,19.5-8.3
	c3.3-1.4,6.6-2.8,9.8-4.3c3.1-1.4,6.1-2.8,9.2-4.2c23.6-10.4,45.8-22.3,67.1-36.8c0.5-0.3,1-0.6,1.4-1c12.4-7.1,12.4-7.1,22-16.6
	c-4.5,0-9-0.1-13.5-0.1c-1.5,0-3.1,0-4.6,0C702,20.2,702,20.2,687.6,23c-0.4,0.1-0.8,0.3-1.2,0.4c-3.7,1.2-7.7,2.5-10.5,5.3
	c-0.2,1.2-0.4,2.3-0.6,3.5c0.4,0,0.7,0.1,1.1,0.1c1.6,0.1,3.3,0.3,4.9,0.4c0.6,0,1.1,0.1,1.7,0.1c5.3,0.5,5.3,0.5,7.6,2.3
	c1.6,2.5,1.5,5.9,1.2,8.8c-0.4,0.4-0.8,0.8-1.2,1.2c-1,0-1.9,0-2.9,0c-0.9-3.2-0.9-3.2-1.8-6.4c-0.6,0-1.2,0-1.8-0.1
	c-9.6-0.4-9.6-0.4-13.2-3.5c-1.2-2.4-1.3-4.3-0.9-7c1.7-4.2,5.6-6.5,9.6-8.3C692.1,14.8,705.4,14.4,718.8,14.5z M161.1,112.4
	c-0.8,1.2-0.8,1.2-1.3,2.5c-0.2,0.4-0.4,0.9-0.6,1.3c-1.3,3.8-1.1,7.7-1.2,11.7c0,0.7,0,1.3,0,2c0,1.4,0,2.8,0,4.2
	c0,2.1,0,4.2,0,6.3c0,9.5,0.3,18.7,2.4,28c0.1,0.5,0.2,0.9,0.3,1.4c1,4.4,2.3,8.6,3.9,12.8c0.2,0.5,0.3,0.9,0.5,1.4
	c2.8,7.6,5.8,15.1,8.9,22.6c1.6-1.4,2.3-2.9,3.2-4.8c0.3-0.6,0.5-1.2,0.8-1.9c0.3-0.7,0.5-1.3,0.8-2c0.3-0.7,0.6-1.4,0.9-2.1
	c1.9-4.6,3.8-9.3,5.6-13.9c0.9-2.4,1.9-4.7,3-7c1.8-3.8,3.2-7.8,4.7-11.7c0.1-0.4,0.3-0.8,0.4-1.2c4.7-12.8,9.3-26.3,9.7-40
	c0-0.4,0-0.8,0.1-1.2c0-2.2-0.4-3.1-1.9-4.8c-4.2-3-8.6-4.1-13.7-4.7c-0.9-0.1-0.9-0.1-1.8-0.2c-4.8-0.5-9.6-0.7-14.5-0.7
	c-1,0-1,0-2,0c-0.9,0-0.9,0-1.9,0c-0.6,0-1.1,0-1.7,0C163.7,110.7,162.6,111.3,161.1,112.4z M309.8,170.5c-0.6,0.3-1.2,0.6-1.7,1
	c-5.3,3-10.3,6.3-15.2,10c-0.4,0.3-0.7,0.5-1.1,0.8c-4.9,3.7-9.7,7.7-14.1,12.1c0,0.2,0,0.4,0,0.6c10.5,0.4,16.4-2,24.1-9.1
	c0.6-0.6,1.2-1.1,1.8-1.7c1.4-1.3,2.8-2.5,4.2-3.7c3.9-3.4,7.2-7.4,9.8-11.9c0-0.4,0-0.8,0-1.2C314.5,167.5,312.3,169.2,309.8,170.5
	z M251.9,179.2c-0.2,0.4-0.3,0.8-0.5,1.2c-10.3,27.5-10.3,27.5-16.7,34.1c-1.2,1.8-1.1,2.8-0.7,4.9c0.1,0.4,0.2,0.8,0.3,1.3
	c0.1,0.6,0.1,0.6,0.3,1.3c0.3,1.3,0.6,2.6,0.9,3.9c0.1,0.7,0.1,0.7,0.3,1.3c0.5,2,0.9,3.5,2.1,5.2c0.2-0.3,0.5-0.5,0.7-0.8
	c4.3-4.9,8.7-9.7,13.1-14.5c1.6-1.7,3.1-3.4,4.6-5.1c2.6-2.9,5.3-5.8,8-8.6c0.4-0.4,0.8-0.8,1.1-1.2c0.5-0.5,0.5-0.5,1-1.1
	c0.9-0.9,0.9-0.9,0.7-2.1c-0.5-0.1-0.9-0.1-1.4-0.2c-4.7-0.6-8.1-1.7-11.5-5.1c-1.5-2.9-1.4-6.3-1.5-9.6c0-0.5-0.1-1-0.1-1.5
	c-0.1-1.2-0.1-2.4-0.2-3.6C252.3,179.2,252.1,179.2,251.9,179.2z M224.9,204.9c0,3.1,0,6.2,0,9.4c0.8,0,1.5,0,2.3,0
	c-0.3-3.3-0.8-6.2-1.8-9.4C225.3,204.9,225.1,204.9,224.9,204.9z M173.4,218.4c-0.2,0.3-0.3,0.7-0.5,1c-0.7,1.6-1.4,3.2-2.2,4.8
	c-0.2,0.5-0.5,1.1-0.7,1.6c-1.5,3.2-3,6.4-4.6,9.6c-0.4,0.8-0.8,1.7-1.3,2.5c-0.2,0.4-0.4,0.9-0.7,1.3c-1.2,2.3-2.3,4.6-3.5,7
	c-2.5,4.9-4.9,9.8-7.4,14.7c-1.5,2.9-2.9,5.9-4.4,8.8c-1.4,2.9-2.9,5.8-4.3,8.7c-0.5,1.1-1.1,2.2-1.6,3.3
	c-3.2,6.4-6.5,12.8-9.8,19.1c-1.8,3.4-3.5,6.8-5.2,10.2c-2.6,5.3-5.2,10.5-8,15.7c-2.3,4.3-4.4,8.6-6.5,13
	c-1.8,3.7-3.6,7.5-5.4,11.2c-0.3,0.7-0.3,0.7-0.7,1.4c-0.5,1-1,2-1.4,2.9c-6.2,12.6-12.1,25.3-17.8,38c-1.3,3-2.7,5.9-4.1,8.9
	c-0.5,1-0.5,1-1,2.1c-0.8,1.7-1.6,3.4-2.5,5.1c-0.4,0.7-0.4,0.7-0.7,1.5c-0.5,1-1,1.9-1.5,2.9c-1.5,3-1.9,4.7-1,8
	c4.5-4.4,8.9-9.1,12.9-14.1c0-0.4,0-0.8,0-1.2c0.4,0,0.8,0,1.2,0c0.8-0.9,1.5-1.8,2.3-2.7c2.1-2.6,4.2-5.1,6.5-7.5
	c2.6-2.8,5.1-5.7,7.4-8.6c1.5-1.8,3-3.4,4.6-5.1c2.5-2.7,4.8-5.4,7.1-8.2c1.6-2,3.3-3.9,4.9-5.8c2.5-2.9,4.9-5.8,7.3-8.8
	c1.1-1.4,2.2-2.7,3.4-4.1c4-4.9,8-9.8,11.9-14.8c1.6-2,3.2-4.1,4.8-6.1c1.3-1.7,2.6-3.4,4-5.1c3.3-4.3,6.7-8.5,10.2-12.6
	c2.2-2.7,4.4-5.3,6.5-8c3.4-4.3,6.9-8.4,10.4-12.6c1.7-2,3.3-4,5-6c2.1-2.5,4.1-5,6.3-7.5c0.3-0.4,0.6-0.7,0.9-1.1
	c1.3-1.5,2.6-3,3.9-4.4c0.4-0.4,0.8-0.8,1.2-1.2c0.3-0.3,0.7-0.6,1-1c0.7-1.1,0.7-1.1,0.1-2.7c-0.8-2.1-1.7-4-2.7-6
	c-0.4-0.8-0.8-1.7-1.3-2.5c-0.2-0.5-0.5-0.9-0.7-1.4c-2.3-4.5-4.5-9-6.8-13.5c-0.6-1.2-1.2-2.4-1.8-3.7c-3.4-6.7-6.7-13.5-9.7-20.4
	c-1-2.3-2-4.5-3.4-6.6C173.8,218.4,173.6,218.4,173.4,218.4z M232.1,243.5c-0.7,0.7-1.3,1.4-2,2.2c-0.3,0.4-0.7,0.8-1,1.1
	c-1,1.1-2,2.2-2.9,3.2c-0.4,0.5-0.8,0.9-1.2,1.4c-2.2,2.5-4.3,5.1-6.4,7.8c-1.3,1.5-2.7,2.9-4.1,4.3c-1.1,1.2-2.2,2.3-3.3,3.5
	c-0.3,0.3-0.6,0.6-0.8,0.9c-1.6,1.7-2.9,3.5-4.1,5.5c3.1,5.6,6.3,11.1,10,16.4c0.3,0.5,0.7,1,1,1.5c2.3,3.3,4.7,6.5,7.1,9.7
	c0.8,1,1.6,2.1,2.3,3.2c0.3,0.4,0.6,0.9,0.9,1.3c0.4,0.6,0.4,0.6,0.8,1.1c0.3,0.4,0.3,0.4,0.7,0.8c0.4,0,0.8,0,1.2,0
	c0.4,0.8,0.8,1.5,1.2,2.3c0.4,0,0.8,0,1.2,0c0,0.4,0,0.8,0,1.2c1.3,0.8,1.3,0.8,2.9,1.2c1.5-0.7,1.5-0.7,2.8-1.8
	c0.5-0.4,0.9-0.7,1.4-1.1c2.8-3,1.8-8,1.8-11.8c0-0.4,0-0.8,0-1.2c0-6.6-0.2-13.3-0.6-19.9c0-0.6,0-0.6-0.1-1.2
	c-0.5-8.5-1.9-16.6-3.9-24.9c-0.2-0.8-0.4-1.6-0.6-2.4c-0.5-2-0.9-3.9-1.4-5.9C233.5,241.7,233.5,241.7,232.1,243.5z M202.1,277.6
	c-1.1,1.2-2.1,2.3-3.1,3.5c-0.6,0.8-1.3,1.5-1.9,2.3c-0.5,0.6-0.5,0.6-1,1.2c-1.2,1.5-2.5,2.9-3.8,4.4c-4.1,4.7-8,9.4-12,14.3
	c-1,1.3-2.1,2.6-3.2,3.8c-3.4,4.1-6.8,8.3-10.1,12.5c-2,2.6-4.1,5.2-6.2,7.8c-3.5,4.3-6.9,8.6-10.2,12.9
	c-4.3,5.6-8.7,11.1-13.2,16.5c-0.8,0.9-1.5,1.9-2.3,2.8c-2.7,3.3-5.5,6.6-8.3,9.9c-1.8,2.1-3.6,4.2-5.3,6.4c-2.1,2.6-4.3,5-6.5,7.5
	c-1.3,1.5-2.6,3.1-3.9,4.6c-2.4,3-5,5.9-7.6,8.7c-1.6,1.7-3.1,3.4-4.6,5.2c-1.2,1.3-2.4,2.7-3.6,4c-1.8,2-3.6,4.1-5.3,6.3
	c-2.9,3.6-6,7-9.1,10.4c-0.4,0.4-0.7,0.8-1.1,1.2c-0.3,0.3-0.7,0.7-1,1.1c-1.7,2.5-1.3,5-0.8,7.9c0.1,0.7,0.3,1.4,0.4,2.2
	c0.2,1.1,0.2,1.1,0.4,2.3c0.2,1.1,0.2,1.1,0.4,2.3c0.5,3.8,0.5,3.8,2.3,7c0.3-0.3,0.6-0.6,0.9-0.9c2.3-2.4,4.7-4.6,7.2-6.8
	c1.5-1.3,3-2.7,4.5-4c1.8-1.6,3.6-3.3,5.4-4.8c2.3-2,4.6-4.2,6.9-6.3c2.6-2.4,5.2-4.9,7.9-7.2c2-1.7,3.9-3.5,5.9-5.3
	c1.3-1.2,2.6-2.3,4-3.5c2.4-2.1,4.8-4.3,7.1-6.5c2.7-2.6,5.5-5.1,8.3-7.6c1.3-1.2,2.7-2.4,4-3.6c1.7-1.5,3.4-3.1,5.2-4.6
	c1.8-1.5,3.5-3.1,5.2-4.7c3.2-2.9,6.4-5.7,9.7-8.4c2.4-2,4.7-4.1,7-6.3c2.1-1.9,4.2-3.8,6.3-5.6c0.3-0.3,0.6-0.5,0.9-0.8
	c3.5-3,6.9-6,10.5-8.9c2.6-2.1,5.1-4.2,7.5-6.4c3.2-2.8,6.4-5.4,9.7-8c2.2-1.7,4.3-3.5,6.5-5.2c2.8-2.4,5.7-4.7,8.6-7
	c3.4-2.7,6.8-5.5,10.1-8.3c-2.2-2.6-2.2-2.6-4.5-5.2c-6.1-6.6-11.4-14.1-16-21.8c-0.6-1-1.2-2-1.8-3c-0.6-0.9-1.2-1.9-1.7-2.9
	c-1.7-2.7-1.7-2.7-3.5-5.3C202.9,277.6,202.5,277.6,202.1,277.6z M72.7,424.5c-0.2,0.8-0.4,1.5-0.6,2.3c0.4-0.2,0.8-0.4,1.2-0.6
	C73.1,425.7,72.9,425.1,72.7,424.5z M73.9,431c-1.2,1.3-2.3,2.6-3.4,3.9c-0.3,0.4-0.6,0.7-0.9,1.1c-0.9,1.1-1.8,2.1-2.7,3.2
	c-0.4,0.5-0.9,1-1.3,1.5c-1.2,1.6-2,3.1-2.8,4.9c-0.2,0.5-0.2,0.5-0.5,1.1c-0.6,1.4-1.3,2.8-1.9,4.2c-0.5,1-0.9,2-1.4,3.1
	c-1.8,4-3.6,8-5.4,12c-0.5,1.2-1.1,2.4-1.6,3.5c-0.2,0.5-0.4,0.9-0.7,1.4c-0.2,0.4-0.4,0.8-0.6,1.2c-0.5,1-0.5,1-0.4,2.1
	c2-0.9,3.2-2,4.7-3.5c1.3-1.4,2.4-2.4,4.1-3.5c0-0.4,0-0.8,0-1.2c0.3-0.1,0.6-0.3,1-0.4c1.8-1,3-2.3,4.4-3.8
	c1.9-1.9,3.8-3.8,5.8-5.6c0.4-0.3,0.7-0.6,1.1-1c1.1-1,1.1-1,2.5-1.9c1.6-1.2,2.4-2,3.3-3.8c0.4-3.5-0.5-7.1-1.2-10.5
	c-0.1-0.4-0.2-0.8-0.2-1.3c-0.5-2.3-1-4.6-1.5-6.9C74.3,431,74.1,431,73.9,431z M77.2,454.5c-0.3,0.3-0.7,0.7-1,1
	c-1.4,1.4-2.9,2.8-4.4,4.1c-2.4,2-4.5,4.2-6.7,6.4c-2.5,2.5-5,5-7.8,7.3c-1.4,1.2-2.7,2.6-4.1,4c-1.4,1.4-3,2.7-4.6,3.9
	c-3.8,3.9-5.5,9-7.4,14c-0.3,0.8-0.6,1.6-0.9,2.4c-0.9,2.4-1.8,4.7-2.8,7.1c-0.3,0.7-0.5,1.3-0.8,2c-1.5,3.7-2.9,7.5-4.3,11.2
	c-0.8,2-1.6,4.1-2.4,6.1C12.8,568.9,9.7,616,17.7,663.4c0.2,0.9,0.2,0.9,0.3,1.8c3.6,20.5,10.5,45.9,28.4,58.7
	c2.6,1.5,4.8,2.1,7.8,2.2c0.5,0,1,0,1.5,0c0.8,0,0.8,0,1.6,0c0.6,0,1.1,0,1.7,0c1.2,0,2.4,0,3.6,0c1.8,0,3.6,0,5.4,0
	c12.4,0.7,12.4,0.7,23-4.2c4.8-12.4,3-28.6,3-41.6c0-1.2,0-2.5,0-3.7c0-4.4,0-8.8,0-13.2c0-3.6,0-7.2,0-10.7c0-21-0.1-41.9-1.2-62.8
	c-0.1-1.3-0.1-2.5-0.2-3.8c-0.2-4.1-0.5-8.3-0.7-12.4c0-0.6-0.1-1.2-0.1-1.8c-0.6-10-1.4-20.1-2.3-30.1c-0.3-3-0.5-5.9-0.8-8.9
	c-1.9-21.8-4.1-43.4-7.7-65c-0.1-0.7-0.2-1.4-0.4-2.2c-0.7-4-1.3-7.9-2-11.9C77.9,453.7,77.9,453.7,77.2,454.5z M53.4,456.1
	c-0.5,0.6-0.5,0.6-1,1.2c-6.9,8.5-6.9,8.5-8.3,10.1c-0.9,1.1-1.8,2.2-2.6,3.2c-2.6,3.2-5.2,6.2-7.9,9.2c-1.8,2-3.5,4.1-5.1,6.2
	c-1.1,1.3-2.2,2.6-3.3,3.9c-0.3,0.4-0.6,0.7-1,1.1c-0.6,0.7-1.2,1.4-1.9,2.1c-1.6,1.8-3,3.6-4.1,5.8c2.7-0.8,4.8-1.9,7.1-3.5
	c0.5-0.3,0.5-0.3,1-0.7c3-2.1,6-4.4,8.8-6.7c1.2-0.9,2.4-1.8,3.6-2.6c4.5-3.3,6.3-6.9,8.2-11.9c0.7-1.8,1.5-3.6,2.3-5.3
	c0.3-0.7,0.6-1.3,0.9-2c0.6-1.3,1.2-2.7,1.8-4c0.4-0.9,0.4-0.9,0.8-1.8c0.2-0.5,0.5-1.1,0.7-1.7c0.2-0.4,0.3-0.9,0.5-1.3
	C53.7,456.7,53.7,456.7,53.4,456.1z"/>
<path d="M482.9,353.6c0.5,0,0.9,0,1.4,0.1c0.4,1,0.8,1.9,1.2,2.9c-0.7,0.9-0.7,0.9-1.8,1.8c-1.6-0.2-1.6-0.2-2.9-0.6
	c-0.4-1.4-0.4-1.4-0.6-2.9C481.4,353.7,481.4,353.7,482.9,353.6z"/>
</svg>
